<mxfile host="Electron" modified="2024-05-13T07:24:59.937Z" agent="Mozilla/5.0 (Windows NT 10.0; Win64; x64) AppleWebKit/537.36 (KHTML, like Gecko) draw.io/24.2.5 Chrome/120.0.6099.109 Electron/28.1.0 Safari/537.36" etag="odn15TMyZtzvK_ODU9PC" version="24.2.5" type="device">
  <diagram name="第1頁" id="yjY9xi0w2jYvSDXM2f4n">
    <mxGraphModel dx="1426" dy="844" grid="0" gridSize="10" guides="1" tooltips="1" connect="1" arrows="1" fold="1" page="1" pageScale="1" pageWidth="827" pageHeight="1169" math="0" shadow="0">
      <root>
        <mxCell id="0" />
        <mxCell id="1" parent="0" />
        <mxCell id="GGMO2yRkHg3GSXrG5hGa-30" value="" style="edgeStyle=orthogonalEdgeStyle;rounded=0;orthogonalLoop=1;jettySize=auto;html=1;" edge="1" parent="1" source="GGMO2yRkHg3GSXrG5hGa-2" target="GGMO2yRkHg3GSXrG5hGa-29">
          <mxGeometry relative="1" as="geometry" />
        </mxCell>
        <mxCell id="GGMO2yRkHg3GSXrG5hGa-2" value="&lt;span style=&quot;font-weight: 400;&quot;&gt;用PostOrder的方式，得到每個最右邊?&lt;/span&gt;" style="swimlane;whiteSpace=wrap;html=1;" vertex="1" collapsed="1" parent="1">
          <mxGeometry x="547" y="289" width="249" height="26" as="geometry">
            <mxRectangle x="366" y="320" width="796" height="624" as="alternateBounds" />
          </mxGeometry>
        </mxCell>
        <mxCell id="E0cjX2hLZe1eXGa2LxXt-12" value="" style="edgeStyle=orthogonalEdgeStyle;rounded=0;orthogonalLoop=1;jettySize=auto;html=1;" parent="GGMO2yRkHg3GSXrG5hGa-2" source="E0cjX2hLZe1eXGa2LxXt-9" target="E0cjX2hLZe1eXGa2LxXt-11" edge="1">
          <mxGeometry relative="1" as="geometry">
            <Array as="points">
              <mxPoint x="401" y="137" />
              <mxPoint x="401" y="137" />
            </Array>
          </mxGeometry>
        </mxCell>
        <mxCell id="E0cjX2hLZe1eXGa2LxXt-9" value="Python" style="rounded=1;whiteSpace=wrap;html=1;" parent="GGMO2yRkHg3GSXrG5hGa-2" vertex="1">
          <mxGeometry x="341" y="40" width="120" height="60" as="geometry" />
        </mxCell>
        <mxCell id="E0cjX2hLZe1eXGa2LxXt-11" value="無法完成" style="rounded=1;whiteSpace=wrap;html=1;" parent="GGMO2yRkHg3GSXrG5hGa-2" vertex="1">
          <mxGeometry x="156" y="129" width="483.5" height="60" as="geometry" />
        </mxCell>
        <mxCell id="E0cjX2hLZe1eXGa2LxXt-19" style="edgeStyle=orthogonalEdgeStyle;rounded=0;orthogonalLoop=1;jettySize=auto;html=1;" parent="GGMO2yRkHg3GSXrG5hGa-2" source="E0cjX2hLZe1eXGa2LxXt-14" target="E0cjX2hLZe1eXGa2LxXt-15" edge="1">
          <mxGeometry relative="1" as="geometry" />
        </mxCell>
        <mxCell id="E0cjX2hLZe1eXGa2LxXt-20" value="" style="edgeStyle=orthogonalEdgeStyle;rounded=0;orthogonalLoop=1;jettySize=auto;html=1;" parent="GGMO2yRkHg3GSXrG5hGa-2" source="E0cjX2hLZe1eXGa2LxXt-14" target="E0cjX2hLZe1eXGa2LxXt-17" edge="1">
          <mxGeometry relative="1" as="geometry" />
        </mxCell>
        <mxCell id="E0cjX2hLZe1eXGa2LxXt-14" value="3" style="ellipse;whiteSpace=wrap;html=1;aspect=fixed;" parent="GGMO2yRkHg3GSXrG5hGa-2" vertex="1">
          <mxGeometry x="180" y="219" width="35" height="35" as="geometry" />
        </mxCell>
        <mxCell id="E0cjX2hLZe1eXGa2LxXt-15" value="9&lt;span style=&quot;white-space: pre;&quot;&gt;&#x9;&lt;/span&gt;" style="ellipse;whiteSpace=wrap;html=1;aspect=fixed;" parent="GGMO2yRkHg3GSXrG5hGa-2" vertex="1">
          <mxGeometry x="129.5" y="262" width="35" height="35" as="geometry" />
        </mxCell>
        <mxCell id="E0cjX2hLZe1eXGa2LxXt-16" value="15" style="ellipse;whiteSpace=wrap;html=1;aspect=fixed;" parent="GGMO2yRkHg3GSXrG5hGa-2" vertex="1">
          <mxGeometry x="186" y="327" width="35" height="35" as="geometry" />
        </mxCell>
        <mxCell id="E0cjX2hLZe1eXGa2LxXt-22" style="edgeStyle=orthogonalEdgeStyle;rounded=0;orthogonalLoop=1;jettySize=auto;html=1;" parent="GGMO2yRkHg3GSXrG5hGa-2" source="E0cjX2hLZe1eXGa2LxXt-17" target="E0cjX2hLZe1eXGa2LxXt-18" edge="1">
          <mxGeometry relative="1" as="geometry" />
        </mxCell>
        <mxCell id="E0cjX2hLZe1eXGa2LxXt-23" style="edgeStyle=orthogonalEdgeStyle;rounded=0;orthogonalLoop=1;jettySize=auto;html=1;" parent="GGMO2yRkHg3GSXrG5hGa-2" source="E0cjX2hLZe1eXGa2LxXt-17" target="E0cjX2hLZe1eXGa2LxXt-16" edge="1">
          <mxGeometry relative="1" as="geometry" />
        </mxCell>
        <mxCell id="E0cjX2hLZe1eXGa2LxXt-17" value="20" style="ellipse;whiteSpace=wrap;html=1;aspect=fixed;" parent="GGMO2yRkHg3GSXrG5hGa-2" vertex="1">
          <mxGeometry x="230.5" y="265" width="35" height="35" as="geometry" />
        </mxCell>
        <mxCell id="E0cjX2hLZe1eXGa2LxXt-18" value="7" style="ellipse;whiteSpace=wrap;html=1;aspect=fixed;" parent="GGMO2yRkHg3GSXrG5hGa-2" vertex="1">
          <mxGeometry x="279" y="320" width="35" height="35" as="geometry" />
        </mxCell>
        <mxCell id="E0cjX2hLZe1eXGa2LxXt-25" value="" style="html=1;shadow=0;dashed=0;align=center;verticalAlign=middle;shape=mxgraph.arrows2.arrow;dy=0.6;dx=40;notch=0;" parent="GGMO2yRkHg3GSXrG5hGa-2" vertex="1">
          <mxGeometry x="341.5" y="244.5" width="100" height="70" as="geometry" />
        </mxCell>
        <mxCell id="E0cjX2hLZe1eXGa2LxXt-26" value="&lt;font style=&quot;font-size: 17px;&quot;&gt;PostOrder:&amp;nbsp; 9 15 7 3 20&lt;/font&gt;" style="rounded=1;whiteSpace=wrap;html=1;align=center;" parent="GGMO2yRkHg3GSXrG5hGa-2" vertex="1">
          <mxGeometry x="471.5" y="252.5" width="221" height="60" as="geometry" />
        </mxCell>
        <mxCell id="E0cjX2hLZe1eXGa2LxXt-27" value="&lt;font style=&quot;font-size: 18px;&quot;&gt;這個例子會有差非常遠的node出現在不同的Layer。&lt;/font&gt;" style="text;html=1;align=center;verticalAlign=middle;whiteSpace=wrap;rounded=0;fillColor=#fff2cc;strokeColor=#d6b656;" parent="GGMO2yRkHg3GSXrG5hGa-2" vertex="1">
          <mxGeometry x="120" y="468" width="221" height="79" as="geometry" />
        </mxCell>
        <mxCell id="E0cjX2hLZe1eXGa2LxXt-28" value="&lt;font style=&quot;font-size: 18px;&quot;&gt;原本想法是用PostOrder每個node只會相差1個layer，所以可以用if else處理，但是現在看來，可能需要寫得很複雜，才有辦法用Postorder解這題。&lt;/font&gt;" style="text;html=1;align=center;verticalAlign=middle;whiteSpace=wrap;rounded=0;fillColor=#fff2cc;strokeColor=#d6b656;" parent="GGMO2yRkHg3GSXrG5hGa-2" vertex="1">
          <mxGeometry x="411.5" y="468" width="331.5" height="116" as="geometry" />
        </mxCell>
        <mxCell id="E0cjX2hLZe1eXGa2LxXt-31" style="edgeStyle=orthogonalEdgeStyle;rounded=0;orthogonalLoop=1;jettySize=auto;html=1;" parent="GGMO2yRkHg3GSXrG5hGa-2" source="E0cjX2hLZe1eXGa2LxXt-29" target="E0cjX2hLZe1eXGa2LxXt-27" edge="1">
          <mxGeometry relative="1" as="geometry" />
        </mxCell>
        <mxCell id="E0cjX2hLZe1eXGa2LxXt-32" style="edgeStyle=orthogonalEdgeStyle;rounded=0;orthogonalLoop=1;jettySize=auto;html=1;" parent="GGMO2yRkHg3GSXrG5hGa-2" source="E0cjX2hLZe1eXGa2LxXt-29" target="E0cjX2hLZe1eXGa2LxXt-28" edge="1">
          <mxGeometry relative="1" as="geometry" />
        </mxCell>
        <mxCell id="E0cjX2hLZe1eXGa2LxXt-29" value="問題" style="rounded=1;whiteSpace=wrap;html=1;" parent="GGMO2yRkHg3GSXrG5hGa-2" vertex="1">
          <mxGeometry x="331.5" y="365" width="120" height="60" as="geometry" />
        </mxCell>
        <mxCell id="E0cjX2hLZe1eXGa2LxXt-5" style="edgeStyle=orthogonalEdgeStyle;rounded=0;orthogonalLoop=1;jettySize=auto;html=1;entryX=0.5;entryY=0;entryDx=0;entryDy=0;" parent="1" source="hCm_PZ9iLinTLQE1ZAej-1" target="E0cjX2hLZe1eXGa2LxXt-1" edge="1">
          <mxGeometry relative="1" as="geometry" />
        </mxCell>
        <mxCell id="hCm_PZ9iLinTLQE1ZAej-1" value="題目:給一個Tree的root，請計算每一個層node數值的平均值" style="rounded=1;whiteSpace=wrap;html=1;" parent="1" vertex="1">
          <mxGeometry x="204" y="26" width="498" height="60" as="geometry" />
        </mxCell>
        <mxCell id="E0cjX2hLZe1eXGa2LxXt-6" style="edgeStyle=orthogonalEdgeStyle;rounded=0;orthogonalLoop=1;jettySize=auto;html=1;" parent="1" source="E0cjX2hLZe1eXGa2LxXt-1" target="E0cjX2hLZe1eXGa2LxXt-2" edge="1">
          <mxGeometry relative="1" as="geometry" />
        </mxCell>
        <mxCell id="GGMO2yRkHg3GSXrG5hGa-25" value="" style="edgeStyle=orthogonalEdgeStyle;rounded=0;orthogonalLoop=1;jettySize=auto;html=1;" edge="1" parent="1" source="E0cjX2hLZe1eXGa2LxXt-1" target="GGMO2yRkHg3GSXrG5hGa-13">
          <mxGeometry relative="1" as="geometry">
            <Array as="points">
              <mxPoint x="470" y="267" />
              <mxPoint x="470" y="267" />
            </Array>
          </mxGeometry>
        </mxCell>
        <mxCell id="GGMO2yRkHg3GSXrG5hGa-26" style="edgeStyle=orthogonalEdgeStyle;rounded=0;orthogonalLoop=1;jettySize=auto;html=1;entryX=0.5;entryY=0;entryDx=0;entryDy=0;" edge="1" parent="1" source="E0cjX2hLZe1eXGa2LxXt-1" target="GGMO2yRkHg3GSXrG5hGa-2">
          <mxGeometry relative="1" as="geometry">
            <Array as="points">
              <mxPoint x="672" y="137" />
              <mxPoint x="672" y="223" />
            </Array>
          </mxGeometry>
        </mxCell>
        <mxCell id="E0cjX2hLZe1eXGa2LxXt-1" value="個別得到每一層的所有node: node數量和數值" style="rounded=1;whiteSpace=wrap;html=1;flipH=0;flipV=1;" parent="1" vertex="1">
          <mxGeometry x="294" y="116" width="318" height="41" as="geometry" />
        </mxCell>
        <mxCell id="GGMO2yRkHg3GSXrG5hGa-24" style="edgeStyle=orthogonalEdgeStyle;rounded=0;orthogonalLoop=1;jettySize=auto;html=1;curved=1;" edge="1" parent="1" source="E0cjX2hLZe1eXGa2LxXt-2" target="E0cjX2hLZe1eXGa2LxXt-3">
          <mxGeometry relative="1" as="geometry" />
        </mxCell>
        <mxCell id="E0cjX2hLZe1eXGa2LxXt-2" value="BFS" style="rounded=1;whiteSpace=wrap;html=1;flipH=0;flipV=1;" parent="1" vertex="1">
          <mxGeometry x="233" y="268" width="78" height="41" as="geometry" />
        </mxCell>
        <mxCell id="GGMO2yRkHg3GSXrG5hGa-9" style="edgeStyle=orthogonalEdgeStyle;rounded=0;orthogonalLoop=1;jettySize=auto;html=1;curved=1;" edge="1" parent="1" source="E0cjX2hLZe1eXGa2LxXt-3" target="GGMO2yRkHg3GSXrG5hGa-6">
          <mxGeometry relative="1" as="geometry" />
        </mxCell>
        <UserObject label="用queue紀錄，每一層的node，回傳最左邊的node的Values" link="https://www.notion.so/7232d645de734dde8dcb7c9f48a1ab0c?p=5c364d9000704877ae42a2daf3fe5e2c&amp;pm=s" id="E0cjX2hLZe1eXGa2LxXt-3">
          <mxCell style="rounded=1;whiteSpace=wrap;html=1;" parent="1" vertex="1">
            <mxGeometry x="78" y="359" width="179" height="41" as="geometry" />
          </mxCell>
        </UserObject>
        <mxCell id="E0cjX2hLZe1eXGa2LxXt-34" value="Python" style="rounded=1;whiteSpace=wrap;html=1;" parent="1" vertex="1">
          <mxGeometry x="130" y="651" width="120" height="60" as="geometry" />
        </mxCell>
        <mxCell id="E0cjX2hLZe1eXGa2LxXt-36" value="" style="shape=image;verticalLabelPosition=bottom;labelBackgroundColor=default;verticalAlign=top;aspect=fixed;imageAspect=0;image=data:image/png,iVBORw0KGgoAAAANSUhEUgAAANkAAAC4CAYAAABuFkmJAAAAAXNSR0IArs4c6QAAAARnQU1BAACxjwv8YQUAAAAJcEhZcwAADsMAAA7DAcdvqGQAACx1SURBVHhe7Z0HeBVV+sbfm94rCSGEhJZQglQp0puIIqAgLvxtKIjU1XVtK6C0XcWKCrqoKCKgrq6CoCgQioTeS0hCAiSE9N577n/eyR0TQkJuAqOsfr888+TOzJkzM2fOe77vnJn5xpCfn2+EIAi6YWH6LwiCTojIBEFnRGSCoDMiMkHQGRGZIOiMiEwQdEZEJgg6IyITBJ1p0M3osrIy7NixA+vWrYOlpSW8vLwwadIkdO3a1ZRCEISamGXJjEYjQkJCcOedd+LDDz9EUFAQunfvjqKiIsyaNQtPPvkk0tPTTal/b/JxdO9epJaaZgXhd8YskUVHR2P27NmYMGGCasWmTZsGJycnLFu2DFu2bEFycjKeeOIJFBQUmLaowohkLLtrOPr06aNOQ+4YhzfW7UFhhSnBDcaIdKz74ANEFcjTYsLNQb0iy83NVQU0d+5cVVy2traIiYnB6tWrYTAY4OLignfffRcpKSn47rvvTFtVpxz5mRkYNGkOlvxrCZ554l7EfL8Yr6/fa1p/faQd+RoPPDoNidmV8wb44621a9HX1VC5QBB+Z+oV2f79+5GRkYF7773XtORqvL29sWrVKmzYsMG05GoCg3th+NDhGDXuIbz0ymQc3XXAtMao9vWqU1FehrLySlNnNFYo68tN/0tRWlqK8opKK2U0liMvIxGx8VkoKy0xbVOZn2bHypVtKhR3t1zJs3Lbyny5D85r+6lCSatsr67jfk1LBaGx1CsyuootW7aEo6OjaUkV1d3D5s2bm90vK88vgLW1tfq7Aocw4+7JyMovUee5ZPO/ZuKhd0PVucRzP+DuRxdi7eqlWLBgPqY9OA4Tpr2B+GwjsqNCsPLLnchJv4TXX5mPT748jFLEYdbICdijCIuu49tT+mHR6//CopcXYfaDEzBp5iKcCl2LF5//B+Y+Ox33TZyB/bEmKVUUYe8Xr+CJaTPx4rxn8PjkqVj+/Rlc2QQIQsOoV2QVSsvv6elpmquEgrKzs8PUqVORlJRkWgrV4tVFYUEOMjMzkZZ8Ht+s2oLbRg41ramf/DMbkNP0Hixe8ipWvb8Edgc/wa6T5+EWNAKzHhgO1yYB+MdLSzHtgd6wMm2jYSzOx7lMPyxcsggrv/oC3Yp/wiMvHse0xa/htWWrMD4wD2+vD1EtVlL0Lry9yxL/XLkSry99B2/On4xPn5uJY7EiM6Hx1Cuy1q1bIywsDNnZpk6Pgq+vL9asWYMBAwaoQ/i0aFFRUfDz8zOluJrPlv4N48ePx0OPL4L7uAWYcWdH05r6sW8+EneP6KD0t5Q+l2cL9LnFEpcSMitX1oPByhFDRvQ2zdmjY7uOGPjgVLS2r+yztQoOQFZ8MmiTz4dsQnrsSSz460zMmDEDc99cBXtjEmITEtW0gtAY6hVZz5491f7Jzp07TUsqYT+MFVFbPm/ePHWIvy6mL1yFkJ9/wH3dgK/X7UaBqV9lDpbuLnC0NM0oh2ylmKvSonLT/LUxWFrA2cHGNKfkZWEJdxcX05wyr6zXyMjIQfCQ0XjooYcqp8nT8fqnq9Ev6EpLLggNoV6R8YbzG2+8gY8++kgdrq+NpUuX4sKFCxg9erRpSe0YrO3x8LMvoUP6N1i3NbJyGexgYVOMdG0AQulLZeVefSugLqzqPQPz8fX1RFaeDfr27XvF5OvpYEohCA3HrCo6ePBgPPDAA1iwYAGef/559cb03r178c0332DMmDE4c+YMNm3aBH9/f9MWdWPt1AZPz52BbSvfwqGEAkVk7dG+eQGWfx6KqJgYHN+/CTvCYkyp66eJXwBsCnIRdfE8LscloeZYYUMIUKxY/v5VWP7dIcTEXUbYsV14Y+l65MoQo3AdmCUy3g+bOHEiNm/erA6CvPXWW+qgx7fffovp06er/TP23czFq8to3NclF0uXrEFOqS0efmY+8re+gvv/bzJWby/HkO7tTCnrx6rNCPx9Qms8P+0veO+bk7ieQfcmAYPx4YoncWr9PNx371jMe2sDutw7Gk5yy024DiSQjiDozA3s0QiCUBsiMkHQGRGZIOiMiEwQdEZEJgg6IyITBJ0RkQmCzojIBEFnRGSCoDMiMkHQGRGZIOiMiEwQdEZEJgg6IyITBJ0RkQmCzojIBEFnRGSCoDMiMkHQGRGZIOiMWSIrLy3Cv5fMxPBBPdGhfSA6dOyG4WMfwarvD6O8zgghxQhdOR0dAgMR3OZFxBgllIjw58QskfHjDKcvJmHQvY/jjTdfxV9G3oL06AN44+X52J1eaEp1JXnxkXhtzUGJIy/86TFLZFY2Dnj13bWY/9Q0jBo1Hi+/tgJP39USZXmxOHSgtq/tFWPz6leR6OYLH4PEUxP+3JglMoOFBZwdq6LoGizt4eFhqyx3gotHjSyM5Yje/B6Wro/B489Ngb/FtUVmLMpGUmomSgtzkJQQj4TEZBSXGVFenIekxARlPgn5JVUhuSvKipGalIj4+HgkJqehtG5/VRBuChocd9FYkoeDP3+Olxa/D2OL0Vi/fjG8bH8NVI/clEOYMnE6KrpMxarXumLmLY/iROl4/BD9T7SsxaqVRW7BW1vOw9vJAc4eTjh/OhJtBgyGdexpFLn7If9yOPLc+mDag4Ngq6QP3fgJDl4yINDfFXGXLmHUX6ajpbddZWaCcBNiliUjiXs+QWBgIIKCu+GhZ5ajovUwvPLWi1cIrDA9GkufehqxNn3w8osz4GxtXvYF+eW4bfwDGD/ufjz1eH9E7d6F8q4TcP89YzDhL/ehLO4AIlP4vbFLCIsswqTZj2LM2HGYOXsOWnhWfUxCEG5GzBaZc6semDf/H5j+8CTc2s4DyWd24Pknn0Z4fmWfzFheglULX8TG8HIs+Nc/cIuX+X0xpya+CHCqFItl00C4uDRD365e6ryDvTPsbMtRWKCYXfiiqXs+vli1AXHpBTAYLK/4Kosg3IyYXUOd/LrgkYcfw9/nL8L6737G+3+7HWlhO/HMvE3qt73Ofvc0Vm07jiZtbkP8mV34/PPPsfbzbUg2GlFhiMYGZf6bkHDUNkxiofT5GG+/EoPS57OCpWlW/ferXq1w518eQjc/S2xZtxIff7UVGXnaFzoF4eakUWbAYOmAfpPvQ5AijthNR5GqCCnyxC/IKwMun9yEpYsXYdGiRVi8aA1iK4woMxzHisWLsWzdARSZ8mgsti4+GDpyNKbOehQuCYdwLC7ZtEYQbk7MEllp3DlkFVX7KFF5MY58tRFRFRVoMiwQXooV6vfAB/h09ac1phfR0cIAa+NQvKbMvzFnOOxNWTQGI+Kwd8deRMXE4UJEFLIVy+bp4GRaKwg3J2aJLOf4etwxcjxeevsjrP98JWY/Nh6PLPovKpp0wvyXJ4KD+0079EP/fv2vmPr26wAnRYAGoye69e2HPt1aXPVNZ1jaKP0u2yqPUDkke3u7qgMzcN4BlWMorshOOIlvv1qP77cfRuDt09A1wF1NJgg3K2YN4Rde3I3nFryDY2FRSMkugr1XAAYOGYUHJ45Hr07+qOtWWAUO4KH2j1xzCF8Q/ujI98kEQWcaNfAhCIL5iMgEQWdEZIKgMyIyQdAZEZkg6IyITBB0RkQmCDojIhMEnRGR/WaUIT0lCSnpeaj2FOj/JLmZaSgt0/csjMYKZGRmm+b+tzHriY+c/Z9h9gchpjlg6rzPMDDoN3pEig8jh/wHX33/C1LhjgmTHseofoHqqrLibHy3egW2HbyAlt3uxNSp4+Btf+Vx5WXsxoK/fYIUU7SsZm174uUX5sDB9K7nsZ8/x5qN21Fg0QT3TlmAO7s5IzF8J95e9jmsAodi7tMPwNHCAGNpIT759DvcOXUSfOsJqXA1xTi8cR3SnTujQ1BrtPDzuOlbt9jTIbhgcRuGBFeFndDYuvYdBN8xFc29HE1LrqY0PwM//vADMgsqQ0e4+HbAvbf3hrlP1pUV5eOzr7djykNjTUv+dzHrWpemxsKn1xSsWbMGbz51F96d+zCSsxsTh6ocGxdOxapQ81vBhAt7sHztXni364oAu0v45wvPYl+aEcaybKx/4UGs/Pk8OtzaGeFb38GLS9ehuEbMj8LYszh0LhX+7QIRqEzN/XwqL3RFAQ68PxMvLNsI15a90bWlK/IKi2AsjsaypR9hxJx5CC7Zh+fWnFfziT26GiWubRshMKVVLkjF/lNx8O/YAwH/AwIjBgtLaO/DliVuw39+OlY5YyYVZSWIjy3D0EceweTJk9HKGIV3vglXakDdHNv2JXbE/fHimzX4ejfpPgjBHvkoKL7eN8PMwzugH5avfA/PzpmFha99ih5e0Th4woiK2CN4e0cy/j5vIf42cw4+WDIFMbs24HLelcdlLCqFfdt+WDB3PuYr018fmwB7ayDj3AHMeG87Zi9cgYXPzcTMZ17Cfbd5oSItCqUV3dFHsTi3De2LsPORqEg9hjeXJ2LUqO6mXP/4+AcPxsAOV1uxxtKpS3dkhx9Hlmn+z4Tl3LlzF5h+10lh5G7szW6J23u1RErUJmz/xRIj7xmmVNZyRO7ZiDffX4Hdu/fi28370KbLQDRxMuDUz+9gxaofELJ9I95eHYp+A/ohJuRVrNp4GBEXLuBCVhm6+VfgjSULsHXXfuzY+DGKmwxCYPMrL6yFpTVsrCvjiBQlHcHa9aHoMfFRdLKOxer1W9HjzvEIbuGO/KST+OKzQ2j34AQEOTHkTiXpBzbio9BYeForLWtqAdybNoODtQHHQ9bg+wOtMWZ0ExwKPYDETKC5vzesyjOxdXMI2vUfiIsHNiHZuT9Kwr9H24nPo3eLqnxrYizNxrHDe7Bv7zFEXziHnXtOwdmjKTzdHHFs948Ij01FXl4ujG5B8HGpsob7vnwfl7wD4e9YGQwo5IsPEd+kO/wNqfhl89c4HHEJ4SfDkNfUB81tK3DmxE8ICTmDCxejcPJcAlq0awVbnMeaN9cjKTMTETFJaBlgj52bf8SZyPOIOBaKixbdEOhdtc8zO9djd5oPgps7orwiGu+/9iU8e/SEh9L4HP/+EyS7tkLG8W8REh+ApsZo7Ag9hkvxaUhPUxz2pv5ICgtFmtKYhZ0NR/iBnxGR7Y72LT1NuVfCaGPHj0YjqG9XuCquQ1FmIvafyUSQVwY+Wn8MnXt0gK3SxBekHMBna0OB/HiciLyIlJQ0ZGSXopWvO04cOYTi/BQcP3UWR/btATzao6mbNYyF8fj5x204ey4akZFH8cu+ywgIbKF0AQqw4b13cSq5HBciT+L4/lCczXJB25YeV79i9RtipiUrx/fvz0Lnzp1x+9ivMGr+fLg7WKEiMRyTZ3+H+//+DhYv+SemDCjDi+98B4Y7DR42Ewv/tRhLXnkbMzv+gu2nLqPrmLm4r3cQRj6yCC88PAJJUduBVtOweLGS7u01GNHjygtVnZLMKDw35a+oCJyASR0sYNmyDx4bYIGFT03G1DlzMHHe5yhSPI2aEeJKjBYY3qU5tm/4WLGGD2PWiytRoKTLupyCcs8wvPf6hzj6y7d4dtb9WPzpIRjde2LKY50xY8wgfHbGG2+PDMf5/GA0PTwfA3r1xvSFXyKnFo8m4exR7I7xxLgJ92HMmHsxZWwrhGzZhrxioHvf/nBSfK9bB49GVz/z3M3M2NM4mas0AveOwfi/3Itbm7gh7VIUNv0CjPq/cRg7djT8jDHYsjdVTV9UWoHOfQbg7hH9YZl5FsnlPspxjMFYpUEa0eHKffoEBOPC/kPIU36XnT4C2BTh3AUGKopBWEwF/J1dKxMqePkHY9Qgxc1u0xV33zUCXi5KJVf2ZRnUDaOZ/0P3IzPigLLttQnduQu3PTAWrdt1RiAiEHdZadVQilN7TsIl8FZ0H3QHurZthqD+ozCi/y3qNhW5RfDoe7t6HsMGdlQa40qX9fimNbAP6KMuHzNmEkZ1L8TP++LVdcTes4V6bBPGDcLlPV8jMd204nfCTJFZYszMFTh16hROHnwbJ5bOwJZTabgYewrGNk7Yvf49LFu2DD+EXkLWkQRVZAd/XI4li5ZgxfsfYOvpfKRmXO0oeLceirJDi/DMkmXYcDBZ6QPUVgGNSDu7E09PfxJpbR/BKwsfqzxogwMee/MHvP7so+jZpQ+WvvwYmnraoZnNlafU9v4leHPpP/Hx+h+xbv79CD+2DQm5BTAqu7LIb4U3PvoUr7+3Bs/f0w17v/4cqXkGBA+fiZAjx7F6/mi8smQrurbJwIKfnPHZd1+gU8ZGbDsZZ8q9irj4S2jbsRssTOdg5dUW7sYslDTSrXZr0R5tnaPx48YtOHzyAioUa5CafA7OnrY4smsnduzYibi0fGSmpqjp7ewdYGdXaQ0tvTrAoyAGX4WE4HB4wq99Kw3PZt5wL7iI5Jw8bN99Cb2VPm3EwV+QcfESClz8YW937YbAYG+Pdk7O6ou2BgsfOFoUovIorsSIHMWK78auXbvQ7Lb7cHuAjdIfdkWf3i1wNjYZ5QW5iEx1RJ/b2pq2uBLLpn5oZ/Ji7GyVBjg7DTmlSTgSWQxvH191uXIEcGreDmlxUaZ5wLdFS/W/hYsjPIzlKGQUpt8RM0VWhcG5NYYPaodLyUWwtXWCU9Bw/PWpp/CUMs1781OEbJsNlxNfYfGaYsx5YR5mzZqBEZ1qH4VybtIOL334NV57fATeefpu/HtrpGlNFQVKxXpi+vMo6vQIVr89G4E+VeEGrOya4K4Jk/HElEkwRp5Bjq8/guyuDHBQUWEaZDFYorWfj+IelSt22QivNs1hKHWDtaNSBEon38PLCRXGCiV9VZt8eMcGeE18FW7FcbDrPgCtm7dGv85tEBWbb0pRhY2tNcrLq3XrlbyMldWwcr4OPNxdUf0zARWmGQuX5rhr3GO4Z+xtiNn9FbacToW1nS2atOmLoUOHKtMwTJwyBzPuCVbTW1paqQGJKvHGnQ88hPuHDEZM6Dqs3ZVkWl6Jwd4dbb0KEL1nL05YdEfwgA7wzozAwcMX0DS4B+yrovxdFwa4KBZqEAYPHozOgZooFOvY5R7kxEYiK/sSjM2C4d+QmBTWVpWjvdWuk1G5xgzAe7PS4COryAzDt1tOo30LB3i1bo/WWz/Df4/EVK5LPIXQKKVqOTvCpTAWxcVlyIg7gJXfZKjrWewOng4Ij6lsdVLTwpCdXQSLpq3x3J0tUFJydSyrC4f+gwvJjvCyTcbKf7+H91a8h49/ilDXhX4xDx+v/RIr33gZL358AOMeeRJOSg2JOrQJ8/+1GsmKFnavfQEr13yFr9a8jyde+Rxd+92FFk72CO5zF7rabcLSBe/gy09X4ONvz6Lv2MloYuovlaccRGiEE6YPdlf6OEHI3r8d4RfCsP14NPp0utqtbR0YhAu71+NyKp2wEqXfE4JSny5wcay7H0dsveyVtGdV619++TBOXaz0bfLjlX5rDmXqhlt7tVH6OEb4eLfCxYNfKeVRaR3TlL5tUnWFmqjIicTlpCK14gW1CUBpieKzXoEdeg1oj3MR0eg0pC8cFFG2bp6H6ARrdLvl6nMzuDqhICvXNHf9WNvYwM8qHd+HHMetPSutDrFRrl3i5frujblhwPAgHAzdbZpPx4Gt+9GrV1fT/M2HWSKzdPFE2JbXMGrUKIx+8DkMfG41BrX3gK1re6w89gFOfDBHXTfh5c0IamuAZZu78ewDfnhs0ljMf/8AnpxxK7xc2VxZYOioCQj/4mlMemk1ihLP4In/G6/G1//CcTb+enenyh1Wo6zACr5tHXBq98/46cef1Gnf+cqK6GBli5ANX2JHRC5mvbUOc8a2U0PJ5WbE4/TZiyhSDIurneLOfv8l1n+3C23veBbvLnkCDtYWcGzaFas3rYVPwXGs33AIw558C6/O6InK22eF+GntF+gxdgJsFTetaa8JWDreDi/P+ycses1En8DKmJDVcfPvidnTu2Lbf1Zj+fIPcaI4GI+M6wvV27GwhqeXF+ysrrZqLTsNhU9pOFYtX46Pj9iif7dA5fiU8y5MwY9rVih5Lce+eA/c0dVbcYs64/mHuyDk64/V5ZtPpZi+NWADVw+3X8PooSwHW75hmhU4nhuAR0cEmFZU4RjUH829vdFfvQ9mjY639YBDMz/4m4Ix2zq4wtWhsnpY2vdBM4tz+ODDTxQXtRhOrp6KQamqOq7u7lcNLFhYWCnegeIpmOavwMIGPTr5Kl0IA3zdqmK0tGrTGTnHv8Sn/1U6nkoD4e7mYlrDIlSsuKeL0nGxgn/vSegTUKCWwfLlX8DY8T70CfZmKsWdbqKOHhODktbd2wu2ZgbZ1QsJPyD8DpTj2Jb1iLAZiInDAhruTv2P8Uc/P+EmozQ/E5HhEYhMd8Lgof5/igoolkz4TSkvKUBGdj7snV3hZPfn+I6BiEwQdEbcRUHQGRGZIOiMiEwQdEZEJgg6IyITBJ0RkQmCzojIBEFnRGSCoDMiMkHQGRGZIOiMoaSkRB6rEgQdMRgVTL8FQdABcRcFQWdEZIKgMyIyQdAZEZkg6IyITBB0RkQmCDojIhMEnRGRCYLOiMgEQWdEZIKgMyIyQdAZEZkg6IyITBB0RkQmCDojIhMEnRGRCYLOiMgEQWdEZIKgMyIyQdAZEZkg6IyITBB0RkQmCDojIhMEnRGRCYLOiMgEQWcaJLKSkhJkZGSgsLAQsbGxKCsrw/nz51FeXm5KIQhCTRoksri4OISHhyMnJwfHjx9X/x86dEgVnSAItWNWLHwmOXHiBGJiYtTfVlZWqvXi/6KiIjg6OmLgwIFwcnIybVFFRUUFoqOjYTAYEBgYaFp6JZcuXUJ+fj6CgoJgaWlpWioIfwzqFVlBQQGSkpJUyzV+/HhVZJp7SOFQFEePHkV6ejo6d+4MHx8fdZ0GXcpdu3ap+YwYMQJ2dnamNZUUFxdj+/btal633347rK2tTWsE4Y9Bve5idna26iZSBBTM4cOHsW3btl8niovCyM3NRWJiommrq3FwcEBUVJQq0uqwb2draysWTPjDYrlAwfS7VigAFxcXJCQkoE2bNjh16hTat2+Ptm3bIjMzU3UZKT5OnTp1uspS0V2km+nl5aX+9/Pzg42NjbqOVuzkyZNo3ry52r9r1aqVKjb28bj82LFjuHDhgroPHgOFvnfvXnXbs2fP4siRI+p+7e3tVUtLlzY5ORlNmzZVtyEUP/PhcVPkdG89PDzU/dC67tu3Tz3HkJAQZGVlqQM5/v7+6r4IjzkiIkI9bkFoDPVaMlqq0NBQVRAarKScqrt2aWlp2L9/v2nuatzc3ODu7o6UlBTTEqgjlc7OzuqkQUtHQXh6emLYsGHo3bu32qfTrGRpaalq/SjooUOHquLn4Av7c4MHD1bXX7x4UU2bl5enHnuzZs3UtIMGDVJFdvr06V8tKueZX58+fdCuXTu1b0ixEQqYImcjIAiNpV6R0QJxUIMWiq07J1oRuo2pqam/unkURb9+/dTftcF0HTt2VMVC68aJlVuzXhq0LhSHhYWFKkhaOIqZYqcwuP+WLVv+Kk4Kl/vmfw68+Pr6qtsT9iU5KEMrRGvH9bTAXK6NiDJPCpZ9SVdXVzRp0kRdT7hvHg/zF4TGUq/IIiMj1YEJWjJW9ltvvVW1YqywHTp0UF0rQsHR5boWFAKtA8VD0dCVY17VYaUmtDDaRAHQBaTA6AZSMITzFCPdPf4mnNfgthSi5joSNhbch2aZmReFSLgtz4ci43HSOlOg7E8KQmOpV2Tsf40cOVKtrHTj6OJpsCKyn8NKSVdr1KhRpjW1w0rMSkvh0g1jha45msh5pqPFYZ7aRJE1FIqLgqp+s5w31CkarV9IcWoCJbRkXEdryD4nj0MQrod6RUZXjoMOt9xyC+Lj41VXkQLhsD0HBTioQAHSwtUUTG2wf8MKTEsWEBBwRQUndNkoBK1fRWj52FdqKBQmLazWxyK8J0cXWLNeNaEw6R5qT7LUlU4QzKVekREKgX2d4OBgtQ/FQQIOJvTv3191t7p27WpKWT9015hHixYtrhqJJNxXt27d1P4a3VTeY6MwzBFwTTjY0rNnT9UC79y5Ezt27FCF06VLF1OK2uG5cZ/e3t5XNQKC0FDMeuLjzwYHPDgqWddTLILQEMyyZH82eFuAlltcReFGIJasGuwnsi9IS0aXWEYVhRuBiKwavJFNgVFc2m0CQbheRGSCoDPSJxMEnRGRCYLOiMgEQWdEZIKgMyIyQdAZEZkg6IyITBB0RkQmCDojIhMEnRGRCYLOiMgEQWdEZIKgMyIyQdAZEZkg6IyITBB0pkHvkzEgKYOCMloV3yBmVN6aMTCYHeMp8hNLDEbDFyEZ7YqRgBkl6lowShVj7zMCFmMtVg94w5gbjI5VGwyyw+jBjQkbJwh6Y7bIKBjGWGR4NQqN8S/4FZaaImMMxgMHDqhpKBS+ZcwgoRRMXfHkmZYRpRi+jQJlRCmGoKsuMoaiYz7Voei5P4qMX4xhaLrqMB+GduMx1LVvRsVi/EhG0NLmtejCjP/IiFU1A7AKQkMwy12kDhnok7EPGZC0rgAzFAjj0jNW4/DhwzFkyBDVgjHo6bXiydOCMXgNxaBFJK4JQ3wzelT1SUvbunXrWo9Js6qM21g9lr8GxURha2G9mZ7nyNiLjP/IIKeMw189oKsgNBSzRMbYg4wkfMcdd6gWpnrs+urQ2rGSMk1N1/Ba8QtpgZg3PwjBWInmQIHQJWUsDkb5rR6euzrcL9fxay814SehtEjC1WE4cTYKtG48Ns2yCUJjMHvgg/Hmq8ecrwldN1oMzQrQMtG9pPAYk/5aUAS0YnWJtzYYzZiuK6MQ13QTa0J3j5aYFlODjQH7f9falsdNCyih4YTr4YaNLtLV0twufiuMEXsPHjyIPXv2YMuWLWqFvlFwX+xrUdAUWX3QOjItXUcNio7La7NkHNih2xsWFqZ+QcZc6yoItXHDRKahWQuOPHIwgq4cP/pw5swZdfmNgBaTouVoYn1WjND6MvQ2+1+0uBwQ4fZ19f842MHjZihxDoRc6wuiglAfN1xkHOljLHtWalZWxs+nFeHgAUfxrhfNivHWAL/8ybzNgWKk68e4ihyl5HZ0f2uDI6Z0MSliio1BTwWhsdwwkdFasOJq/zX4m5WW4uB0vdAlZX+M/b6G3Bej+Pm1FlolDvvzE0nmwPO5Ecct/Hm5oSJj609XrPqniugq0nrQarCis8JSKNrH/hoK+1K0SNxXbf2pa0HLqu33Wv0sWknug6OKvAFujksqCHVxQ0WmuW/8dhk/rM4hdn72lsLjvSzCfhEHQnbv3t2ooXHNdTPXElWHoqQ1oyt7rZFMWkr2IXkDnKOe8s1o4Xq4oX0yVnx+qIEWixWUo4y0HJ07d/5VZNcLLRkFbc6IHwXfvXv3KywRRwtp0TQoID5ZwtsIFB6/H81vmvXo0UOdmJ7nIwiNpcGx8Jmc95j4n/eParsJTFeLo4xMQ+tR/WN/XEbhcbvaPurAbXl/itvUNjDBfXMAhf28htxXE4TfC/nghCDozA11FwVBuBoRmSDojIhMEHRGRCYIOiMiEwSduSEiKy6/9qssgvBnptEiu5QXi9TCFPV3WMYZGJW/6OwodV4QhCoaLTI3G3ecz4lGhbFCnc8vzVemyvfJBEGoosE3o7OKM2FtaQ1HKyeUVJTAxsJG+c/4GQZYGaxgYahdt3wChK/7a/CxKD5H+FuQp4g/o+jKIDwWBkv4OjZXLXC6sq6orAg2ljbwsveGpbKuLtKKUlFSXgwfB1/1XAvKCtTtmY+jlSM87DyVkjCgtKIUKYXJaiPEPO0sK596YVoHKwfYK1ND4etCfJeOZccgRTc7fDZVi1ZWHVY5vq7E689QD3XBdHyMTntFik8J8cHw2p4yqg1ud/r0aXTo0OGKp45+a8w6Wlag+PzLKCwrVFzD0ziYvF+taBQYsbGwVX/XJTDCAuebxnxukK+oMKIVHxZuDHwsi4VnLlklGQjLPPPrdDL9BMIzw9RnICMyzyrnsw+R2eE4nHIQEVnhpq2uhoI6pKQ5q7jHFcpfeUU5DiSF4oxSJtHZ57Bf+Z2QH68K62TacSQWJKiiPK3sj2VIsZ9IP67utzEwTgnjjvwvCIzwxVgeM8XCNzPOnTtnWmMefMGWYSz4+B3FxfwYivBadoFvTdQWz+X3xLwmQTmn5IJEhCb+gg4ewaoV25+8V6k0la/zn1Uq7i+Ju1BWUaYIsQBb47aorXhNWLn4sC2feeRbx419GZKFzCf7zcXP0R93+t+tTkOaD1Otip+TvyoGiqKDeycM97sDt3r3wqXcWOSU5pi2rIJpI7LOKo2JNU9EXZZVmolixZoPaDYQg32HwdHaWTnvFJQZy5Bflof2bh2UvIPVNDzm2NyL6KjM21le/cymOVyrct2MsDEIDAxUrzuPnaJpDHxGlQ9782Ht6nFaaoP7uNnKyXKBgul3neQpFcbN1h2ZRem4kHtBrYzx+XFqBfVzaqFWHq5r6dIauUoFvZhzHt6Ki+RqU/WkPB/85av8fB2GhcYAO3QV+PIlC4VP7PP1F75iQgHSvPNB4a1bt6qvzrAFYyHzrWYuo9vElpGvrfCh4Z9++kl9vYbiu1ZLT+uSqDQYXZt0Uy/+xdzzaOncCk7WlfEjY5Xzc7ZxUfqcVz7lz+0S8hMQ4NJSdZl5rraKBY/LuwSDBR1Eg1oOAc4tle2d1eVNHXxUC5ak7M9VyTOzJAttXQNNOdYO3Suex+XLl9UWmeXD4+RbDXwPj8tYflq8S5YdW2/GL2FawgBGLG++fUAXneXE13e0F2hZUekJ8BrQHaPbxsoZGRmpruP2vDZ8uZXLuK3WOGrwWtI60XXlNgxIy/3xoW6mZ768flroBobW4zyPn/vjO4Y8Dy7XoobVDFjEc+P15rFw/3QT2TAzLbfRuhvcP8uHHg69I1o8/udbIfzP8uN50CqyjLi9lje9Ky5nvaFby7Q8b+bFWC9aXE5z3vqoC7NExooYlXUObdzaKG5iCWKUiuivVKbLSkVKKIhHbklly9/ata3qhnEApJmj71Uii4iIUCuK5gIEBQWpJ8VKwEJkSDgGxuGJ+/r6qoXHV2QYzoAXgELjNnSZeIEYR4QVhwLltnylhunqCitAa3Q646TSADRVLRndWwqAAipS3F9asbyyXFUcHNjRSFVcvpOKm9fFsytKjKXILM5QRca+W5YinLjcS0gp4kirUSmDNopFqxRAZFYEkgsT0dS+mdI4nYePvQ9i8y6qInWzc7/KvWZF54VlY8JzZIXgPF0lNiasmOxf1LzgrOysgJrI2HdjReLESskQfXTROc907A9xH5xYgZgvBUIBsEIz5IImCL4GxGvB68Oy1mBebOhY0dkV0F7M5ft3rKQ8Xu1tDL5OxOvCffEa8dpRhNyO50Mx8Dx5XtyPRnWRcd8ULJfxXHhebDC4nL+5HesO98dwhLSghMdC8TCkIescGwCWJ8XH/XM5j4/Hw4aKadloc7/t2rVTG3zmwfOqfmwNwSx3sZVzG9ha2iAyM1KtRKxcYRmn1HUUFN0jDYqwLniSfEerV69e6kWkmFhorBTsq/EkOc/WnIXFC8mT/fHHH9WXP3kha7qJrDQsaLbmLLRrvcWcXpym9osoEELr06VJd7VPmaQIzdVWuchK39LaUFWYFOaZ9JOK8JrC3soexWVFyjFWqKOpbHzSC9Nwe4uRirs5QrX27OORVs6tMch3iOJKDlbKywItFFHztoenXRNkl2Sr/bqasAHihdSsFMuL86wAjYGVmWXCSkgB0ztgC83fLDdeA+6LlYpUFyrLlKJgZeT1qNlwsdIxDa8Hj5uVkflo7lpdDV11eM15jLzOzIvHWhPmTyvECNM8dja6PE6Klo0A98Xz06xaTZiWoiKsGzwnHiPrkvbyLht6Cp3lrNUvHhvLnut4Ltx3Y6lXZOxbsEPfUqk0jtaOSof+GArLG79DwhNjK8GT4klrF4oi43+2Lix0uiC8wCNHjlQjBnO7mnAZRcvWjheCbkNtqIM3eZdVoThYVo3sOSv9qP5Kn2pI8+HwsPVQhUexaBSWF6JYsXLcdnfCTvVeYIGy7FDKAaQUpMDOyg5WFlbqdhQQRcwBEQ02QnQTOcLIC+bn2EK18hRaufHKBoMVpqEwz9rKhbAMWc5MQxeQguE+WMloZThxXgthznxYKQkFrgVBYpmyIteEFZ2uGcXBisy8WHm5vK5jaijMh+dAi0oLq8HrTQuuNbzmiLo6jSnrxlKvyGwt7ZSK5IATirj8nQLUoenarJWdUnmtLZRWV3GlCPs1dcETZAFpF5WtKf/TLaHpZmvKisFKQPPNdXRNWDkI12ktDpdRiOyH0fVgvlq66vC4eWx0YS0tqipAhrIsozhdHajhAE5zJz91KL6gLB8ZSj+Tw+0j/UdhVMAYdQr2vEVdzwGUFs7+6ogjXU7mcTkvTsnfVRUdKVcsfFjmaaXc/NXRVwqdoi1QrKCT0mDVdBdpHXjOtDCEv3me9fUH2OJyG543PQA2VoTzLGMKgBMbMG0omyJivizr2oa3uV+WOy0EQ+fV1pLzutHToBB5Tfif87V5E9o1u1GVm8dPC8i+mWYRCY9ZqxvXgtvzWLW6wgafZXGjGofq1Csy3vvq6d1L7cccST2kjiDWBgdAcpTWmbgrFqF6n0aDF3nbtm344Ycf1JaRriNPiuJgB5PLObHF5QXjIAmDo27evFktOF4owgJiReJgB/PhF1+Y5siRI2r4ABZ0TUqVhoH3wih+Wh2NhPzL2KdYag7f+zg0Q3u3jupyCuZY2lHVXayL5o5+CHJrj+OpR7E/MRR2lra4xbPqIxnJinCdFdHRilFk7JPtSdil9vE46lj9OAjFwkaGsVFolWl9WMHra6VZyVhZOJhBt5nlQyg4uuTMiy45LRb3wTzZP+ZybsN0NaHrp23LQRjuoyZsFDSXk1BcvC61iZbWjY0G82SjeL3wGrOs6AnRqmnwOOlG0vrW1thqsEHn8fD8eY7Mj+Wi1bEbidk3oykuWjNWSrbI1WmqVJ7ePn3V+0FxSuXs4dVTrbCCoCdsYGlh2R+8manXkmnQBerm1UN1lzQsFSvHEcWeTfuoN12LFWvRS/ktAhP0hp4NXcXrGVr/rWhUjA9uwr6FlcESNoqLRNg3Yf9FEPSGLiKH1emeaqOhNzMSSEcQdMZsd1EQhMYhIhMEnRGRCYLOiMgEQVeA/webassWNs9MdwAAAABJRU5ErkJggg==;" parent="1" vertex="1">
          <mxGeometry x="20" y="730" width="174.55" height="148" as="geometry" />
        </mxCell>
        <mxCell id="GGMO2yRkHg3GSXrG5hGa-41" style="edgeStyle=elbowEdgeStyle;rounded=0;orthogonalLoop=1;jettySize=auto;html=1;" edge="1" parent="1" source="E0cjX2hLZe1eXGa2LxXt-39" target="GGMO2yRkHg3GSXrG5hGa-12">
          <mxGeometry relative="1" as="geometry">
            <Array as="points">
              <mxPoint x="696" y="730" />
            </Array>
          </mxGeometry>
        </mxCell>
        <mxCell id="E0cjX2hLZe1eXGa2LxXt-39" value="C" style="rounded=1;whiteSpace=wrap;html=1;" parent="1" vertex="1">
          <mxGeometry x="547" y="650.9957142857143" width="120" height="60" as="geometry" />
        </mxCell>
        <mxCell id="E0cjX2hLZe1eXGa2LxXt-43" value="" style="shape=image;verticalLabelPosition=bottom;labelBackgroundColor=default;verticalAlign=top;aspect=fixed;imageAspect=0;image=data:image/png,iVBORw0KGgoAAAANSUhEUgAAAS8AAAEkCAYAAAB+GbcbAAAAAXNSR0IArs4c6QAAAARnQU1BAACxjwv8YQUAAAAJcEhZcwAADsMAAA7DAcdvqGQAADNMSURBVHhe7Z0LeBXVvfZfLnJRiAYE5VaQkCARUQIKCSqp1kCtsVZqT0uD9RStnyJ9Dur3qbRHhLaI57RwHinyKHK0mGKt0lLRcyBqBW0SVO6XKIEgCBI1XBSCXFT6zbv2rGT2sPfOTvYOOsn74xlmZs1aM2tmz3rn//+vlZkWhw8f/ieEECJgtHTnQggRKCReQohAIvESQgQSiZcQIpBIvIQQgUTiJYQIJBIvIUQgkXgJIQKJxEsIEUgkXkKIQCLxEkIEEomXECKQSLyEEIFE4iWECCRJfyXO7t278Ze//MVMXO7Zs6dJHzZsGG644QYzF0KIREmaeFGo7rvvPqxcudKsW9Hi3KYRrhcWFtZsF0KIhpAUt/HNN99Ebm6uEanhw4fjj3/8I5YvX24mCtW2bdvMMrdR5AoKCkyZpkcFCm/LwZDrpmL5QTdJCNEoJCxeFKMf//jHZvnnP/+5ESvrGi5atAiPPPKIWbYWF/OwzL333mvmdVOEqenpSPdNQ775A0z43RJUHHOzCSGaFQm7jbSiaHHR2vLHs2iNEVpdXihqFC9aYhS02FC8JqDw4jwUDOrqph3Dx2uXo2hjFVIG3IHf/3USslu5m04BB4vn48Enn8OZP1iKKXluohDilJKQ5UXXz7qK9QnEjxkzxpRh2bjdx8zvYsq/T3Gn6Zjzl9fwt7uzgXcexX//MR4LLnlUvbMCS1ZUuGtCiK+ChMSLPYpkxowZZl4fbBm7j/rTFpm3FmCUs7S8oiyUJIRoNiRseZGG9BzaMgkF7h1Xsa27WIsbI5tS5K57ibStAvPHOWnj5qPiy90o+t0EfDcnFFfLGXUrpv6vx6orn4+bnPTRD5ea1cIJoXzp6VOdPRN3XzXrxLP/Y2V47pc34ZuXMk8Ovvt/C1FmYnYHsXbBZNz0zSFmf0O+eVP4cb1UlaLwl7ditFtHxv7ueqIUVV+624VoJiQkXgy40/2ri2iB+XjKxmT3x+Cee57RMbSeEAexfNoEzCnviuvunonp996IfoeWo/Dnt2BGsZvl3Fz8dNZMTPmXTLOa+39mYqazPnPWdQilxGI3Cm+bgCUYiTsemII7ruyC3YunYtwvn0PpE3filj9WYfCtD2Lm1DuQ1cYRKO9xLQcc8S24CbOKjyHrp9Od407B+KHtsPLhmzBuWpFzBkI0HxLubYwFB6VSuBjUt72OXrgtvh7HCHxZhaJ5hViemo2C67PdxARY+SiewwQ8/ZgjCGPyceMt07Hg0Tsw2LGcnlu8JCQMKWnIvTYf2X3ONEV6XpiPfGc9/9rBqNP2XFmIiuFzsODX43HjtQWY9NjTePD6FBxc7Fhcj5+NB/80D5PGOvsaOwnzHnaPW+S1EB3x++X9KOw6CU8vXYDpt9zoHLcAd/znAjxxdzYqFj6ER/1iJ0QTJiHxouUUS3w4LOLhhx82yxQv9jB6Ydm4Xc6yv2Hqr6a601246VujMeHlrk7j/T3GZ7h5EiIfE+7OQ4q7Zrg4F9kDHJts9y5j4SWGI4hjvfZZCkaOGGmWMseOQ36qWQxhj7t9lyNhLhtfwAuOlhWMuwOZPl858/o85Dk1XLNRsT/RfEhIvHr06GEEKFbcij2LdnwXh0hYsbNl4u6lXFeEwgWF7rQEu3qPx4JXFmDSyDC5aThD+yHtpF2lIIVG1qqqxMUrwv5TTg9ZcBf0H2zmtbjH9VC1cTPWOvZfbZzNM10eirGtrUxcYoUICgmJF91CMnv2bDOPBq0rihdH2ltLy5ax+6iTsXOwdetWbH13E5bOuBEpZbNw5x3zUZasQHXrthGC/0kkxv7bxjFG7eBnh5z/M3Hjv9s4W4Qpv+7ImxBNhYTEi1aTHa9FqypemLch48MMrdoibcx0zLw9Gyh+FDOebB6uUkjgdqNtTxtnizANrX+vrxBBJeGAPcdr0ZqiJRUpKO/Hjq4nEydONPOGkPavU3DHCKD08RmY/46baOiItr2d2c4IcapyTwwpAeKxlJJNz4xM9HTcxjUb1ropQjRvEhYvCpf9Ex+KF/8kKFIMjLEu9jpSuFgm0p8T1Y80jL93PLIPlOLRh+d7ROkCXMAQUvEKvBAmagdRtKAQoRFaidGzR5qZf/rZKRycMHwkRvUFyhbO8om1A3ten3wuCZ0KQgSHhMWLWAGzvY/8Q22KGCcKVr9+/WreOmHzJiZcLgPuwKQJg3HQcR+nPmnlKwUjv13gSFspZo2/CZOfeA5LFs3H5HGjMbNVLpLyp4iZach1Zkvm3o9HFy1B4a8eRfhfbzYCrbJxx90FyHTOa8ZPvotbfzUfz73oHHuO2/P694PQ36iL5kRSxItYUeIfYbOHkesUMitYDNjbV+VwPVkMnjgJ4/seROncmSh0TY+UK6fgiUcKkNtxG557eDLu+t1zqMp4EE88kA37p90J0bMAU5z9Zx9fiVn33YVHHU+uUYP9Lil5U/DnP81EwSBg25IZmDzpLsx6vgJtR0zCgpnjHcEWovmQ9DepCiHEqSBplpcQQpxKJF5CiEAi8RJCBBKJlxAikEi8hBCBROIlhAgkEi8hRCCReAkhAonESwgRSCReQohAIvESQgQSiZcQIpBIvIQQgUTiJYQIJBIvIUQgkXgJIQKJxEsIEUgkXkKIQCLxEkIEEomXECKQSLyEEIFE4iWECCQSLyFEIJF4CSECicRLCBFIJF5CiEAi8RJCBBKJlxAikEi8hBCBROIlhAgkLQ4fPvxPd7kBFGFq+gQUumvxkH3vUiy4Jc1dE0KIhnHqLa9Wbd0FIYRoOAlaXmV47lfPOf/H4GAFli0uRRWXU/Mxc9lM5KeaLUII0WASFK+6Kf2P0bhpXoVZlssohEgWjes27i5E4fMh4ULvAhT8QMIlhEgOjSpepQsLUXQgtJz9wwLkpYSWhRAiURrPbXSsrgk3TA2Jl2N1zfnLlDjFqxLL/msuijECt9+Zie3PPI9XKw7gixNAh94j8aOfXIVeratR/vfFeKmkHAeOO0XapCLz2wX44ZAuoV1YqneheMlirKiowlHma9kOqd2G4fu3OfsI5RBCBJRGs7zK/vZCjdU1+Hs3NsDqqsKrjz6Jt5CJq64ZiUFd26F65wrM+0Mxypc+icKVB9Ar5zv4Tu4gdGl5wDnePDz/jluUHN2AwkfmYdmWL9Dl4pH4zrWjMKJ/RxyprAx1HgghAk3jWF4Hl+Cub92FJUa8cjHltXko6Gm2xIFree0HUoffjknXdHPTq1E8/z+wbKez2LIXRt1zK0Z0CG1Bxd/wH39Yjer06zFtXJZJOloyD9OX7kLf707DzUNMUoiD1ahO6QBbVAgRTBrF8tq9+AVXuICU66/DdXELl5deuPRKK1ykA4YMCDl77bKuqhUuknYh+p/uzPdVOdIXzudHqt0lFwmXEE2CRhCvMrywZLm73BM3XpuPBsXpz+qOvu3cZZd27dubefcefc28lvZo5887aAgynLRdrzyC2YuKsX3/F+4WIURTIPnitXE5lq9zlwdch1Ej3eX60rK1u3AyreOpdYcsFNxZgBG9WqNq/TI89V/TMP33z2PNXne7ECLQJF281r66DGvd5cwrczHYXf5KSMnAqPH/D9PuuRmjLuoC7N2Axb+fixX73e1CiMCSZPEqxbIX7R8LZSI39yuVrlpS+mLEmIn4eX5ftD5RiQ2r1N8oRNBJrnitW4lS9gaS3tkYfrG7/BVw9GA1/FGuDmelgs5o6zbRXVIhRDBIqnhVrFpb80faKSOykO0ufxUcKJmHab+ehXkvvoo333oTxUv/hNnPrsbRdhkYNlR/GS5E0EmieFWhdG2puwwM7//Vuoyp6VnISDmCylUr8NKLL2HZqu1Ar5EmiJ+lsRJCBJ4kDlJdjqmX3opCM75rMCa98GfcMcBsEEKIpJM8y6u8AhXuwFSgH/pluItCCNEINPr7vIQQojFI8lAJIYQ4NUi8hBCBROIlhAgkEi8hRCCReAkhAonESwgRSCReQohAIvESQgQSiZcQIpBIvIQQgeSUi9eaA2vcJSGEaDiNLl4v7XkpTLDuXDUhbH1+xRPukhBCxE+ji9e6A2vxm02/dtfCoZD9z57/cdeEECJ+Gl28ftp3vJn7LazKI5XGAvvFwF+6KUIIET+n5JU4FCrSrX03I1hZqVlhaULEpvYr6ug0Arf/2yjoromPNU8/gMWo/ZJ8U6JRxIvu4ODUwRifdoubkiSKpiJ9QqG7UkvBnK2YkueufO05jh3vzcbj7y/DquOHUN2iM3LOHIubB47FwNA3dUMcKceS8tlYsncVNp1w1qPlq4PqnVNwc3kR9iAP06+eilw33U/UfEdW4ZkND2HhwT3Y16I78rrfj3syh4Z9dby64m7csKsPZl4xEQOTbsu7wtW5aTbABlG5DLPmFqPL96ahoI63rSdLvCqXzsLckpq3jbqkYsTtkzDqK3qSJOVWoxVFt5Bz6w7O3z6/kYLx2bjvpa3YujU0Lb03G4UT0jG1yN2cdIowNT15+y8vuxU/2/Y8lh8H+qfkIKflIZR8Mht3rX4K5RQpww48s/oneOjjDahuMxT5KQPRB/si5KuDE5uw8D0KUh1EzbcHi9ZOxOwjAzFx8DN4vFcGyj+YiN9uP+RudzhShNk7tiA/ozGEy6FyA8ociytjoIQrJhS0B2ZhWcihSR5mvw9g7ruZuH3aNEzzTNenu3m+IpJyu1mxosVFFl32FzOPJmDM95vN4UF85hvzxg1hPZHxkHbLFNw3HCgsbjT1Sh6HF+GpD8pRjQxMzHIa/bDf4bdXvojpZ3VG9ZHH8PhWj3y0yceDl76MhZfPxv3D5mHhiKnId36t6iMLsexDN08dlL/zn3jqc4RZSZGImu/TIiw/DIw5byryzu6Dgf1vQ347R873rXYzAKu3PIKNZ92Df+3uJojGp9soTHLEoy6rK3HWoNCx8JBzO6ZFcNWzxn11VhdJingxhmXiWEcr6xQwO3TCP4SC+Vh+7f4mPA5s7wYs5/zMH+NHnU2KQ0fk9h7lyBlQsq/Usa9IH/xo6GTkndnGrBna5yE7hQuHcNwRmjrZ9xRm7ynHkO4345tuUkRi5TMBhQx0P9OsOfRBN0e8avh4Nh7bdyF+lplbp0CK4LHm6cUo7zQCPxz99YwwJixexlV0ROcXF/wybgHzY4P3DaMCu1c6zmSvNHe9lqIp6Uh3XD47nez6hVxCb570KbWZQuUngFE2uqbh2yswf5yb5k43PVHhbqsnbTo6EuZweAvKTYLDSb/MPuyzotXKnUfjRAlmr38Mq08bi9sG9IdHAsOJK18l9jrWV4gdzu/rWGis24ly/GHLQnTvMxm59YjB1cJY1gN4wHFJaqanwx9cjNc84Dz5GWkp/2soT+Ha0DY/jMk88EChYyv4WFvopPvcKZPmOe5J5RyLI47trIupI/PU1N1fNnqdI9bNXpf/WuYseTB53Xq4rlxov25+c50OoHhu6JizlvralFvG1umk7SexBmVbnUfXyK9v50jC4vXfjjBxHNf/OJZUXQJGV/F/I4zrYtmGUjTFEZfh92HKLV7xCgnLhO33YakbG9s6p+Ck2FjFE44szamNn2196T5kL5xQI0J5U5k+BwXOMjsFTJ6p7Bng/kdjRt85YWVPlk8fp3fHQM4/XYYln5kUQ/me17DFLB1z/kWmeucjWEQRaZmPnJgu2iEsXz0dz3zpuKYXxopDxZHvrFzktDuEJe/NxupP96F822NYcrQz8rvlYseW3+D5VvfgZ2lGduuHaUhuEL4mhnI9MrYuDmu0WeOc9NtHgJ8IzvheKF/CrhJF4K9VGHG7Pa4vdmPqthhVdJVqtpdjcQRhrFoxC2UD3f2YgDiFK7zstO/F+IzW4EzHrj2AsvVeIalEFXtV95dhgyd5zSbnsZaeiZMjf90w6t+c45jrxAB66LiTvNYSr+uzwA89dTpQMje6qJK1Zc6DNBVdznXXv4YkLF4Xpw42YsXBppEEjOJm8buKlrUHYl1FP6WY8Z1aa2fCwmzc9+/jw4WjqBAzVvrS86ZgzljHgnp6viM9IdJuWRDeS5kxHgVOntJddVlQIWuvYISnsFM2XEAj0GUsvm/aegkeKs7Dz0ruxuQVebizshLGI4xC9YezcX95kWP3dMaYfhORHeNXKy+7E9M/2YchPX7hcU1PJr58jvs65CF8H0tw/1vX4s6dezAk/XFM7LgIj38AjM3MR/WWu3HzK9nIeTkb3//H71B6xC0agzWvOFZCur8HLAsFbID7i/FqfW6HelL5URXQKRODPG07a1xBjSiYuvlcpaxxjrA6TXmFz1o50HlkuJhWVqHKafCZF3l2PrgghuBmIdMRzgPvbqi1siganTKQ0ekAqmpim64V1OBOiwxc741ZDb4KIzo598Cmk9tikEhYvL7T/TsY33d8VAGjYCWX8N7GrS+NxAqKmdfdK3YsqrEFGO976KX1ygZW7q4RrxDh7t+EhU7S9l2+PH7S0JOdBBNuwvwaPy8eOiLv0kWY3nkg+rQ4hE2HS1DeKheTL7otZJG1TAm5jx72VNyPOzcuxGpHuHJ7z8TdvaNbOhzu8OAH5Tj7rIfwUGb0J368+Qyn5+JnlxWh6OpSFF31B9zdpyOKNv8Wh7r9Avmf/gaT39+CPn3+gCWD78HA489jyrpFbtwuGjEaYrdByGzkRtXtnC6OVVOMuT4XNUQ0V6kbujj1OlAVLl6pXcJzoVsXdDGuWwT3NQpZA53rv7+qRrxoYaWefxUynQdKzXVwRbHBVtBJFptzPnxg7as9bhBJWLwoThzP5RewUzb41LF4FjguIRYWukJSgV3bnZnj/llBstPoh0uZoYZQTGs0VoxcWiOGtM7qJg3jn2beWisw7nhXy+7IzZqHhd8qRYkjCM9fNhm5J/Y4VpVD+z6OrWM5jvLNP8HN25c7z3zHAsp8BtMzYgnNDix5n9aZs/TJ/chzLCFaQzkv349FZnsRJnP9jVn4Q1z5ngrVyUf1jul4/ChjZBlY9VER9pzxr5jYLwOdzx6DiT2Horq6BKuj+b7ENMSvEMcSMi4WXSkT//EIjVs3G1+rndwBsj66nOO/xx3rcdrtjlVDNzNUNqZrRozrWI4yk4/iGbLcjKhtLTN1q1xf5liD4dZio3NuF0cuvdbf14+ExIvCxTgWhzh4BYzxreRbXDHo09Oxxyxp6NXXmY31xKPCpikwzl7R1JDL6VhxC+py96IQiok5kyOepQ+PDrP+6sOmDx0LzJnndM527KsQe8rvxp17ylHtWGYPDnsGE3tEt7gsbU7rjoyTps7uPtugj1k/De1PysPJn6/NyQH8EyV4cvtGZPe7GQNb7kAlRaqmHNC5rWOeYC/2xXIdjXWSfIxFFS/uUINpNULjBs3dutn42klTXAM93RiUk//2nFQjhLGD4yGrzlhZxmV0RcqImiOmlZXY8O4Bxxob5LMGG5lTYAUnSkLiRdewW7tuRrCsgDEtXmxebxzs3IZYbDt2w2tTGfdwoePmuOvxU4RSuo31JW+KGSxbt7vpWC6fhTtVjGc99pFj47TMw7V93Ei8IxKLdq0y48Fuu+gh5MUKiNXQB2OGL8JTuf7pHne0vOP+cX34nfhpXPnGwt8vsGnTbKzo8HPc1pNC6ojWac7sy0NOPUPsO0bzpA+6xayvp7H6SXhAKhu7u+hiAt1RodAwnmUtjBh1awDdRk8ynQF+dzOcbhh0fqpx4ZYZl9GKFOvCYP4GVO33xdFOCc61GUnrb3Hd1uNXRELiRdfw90PnhAlYvINMGSsj/vw2PW7K5+Mm/smQJ8aVdksBClCICeNqg/MGx9qq6W001lopVrxem8P0XLrLtbjxrbBBsEWYGmZlVWD5Ckc++/aq7SCIwqrN1yL/7z/C5LenmGD9DSae1R1j+jni0dbN9KFTLzOKfgeWbRyDm5f7pnUlJhuOLcfvXnNcvFduxaJPQkmNxr7HHJHtjp9dmOeO6eqInC456HDoMfx2Wzn27V2E2btXoU+XUciNeVc5jeJfXLctLO4UGhDJQH6DehTdnrviZz1DDNYWYvFWd9mlcmmhb9iEt1ettsH6raU1T8cRx6pchsKwcqEY2kmxMR/dLspE6v4ylO3zilRI1A68W4aqeFxGN94W3nOZII6LHd165BCNRhjRXw9au/MGYwWMPYsUsHg5t10o+ugd4xWfcIXiTDPcNcJhDAvC/rYxD1O2LkXPcaMxOt2Tc/h9WPq0u2xiZbuRPsFx9x4OJXE/c8AhFqH1EGkYP64AMyZMQDqtMrqjU505Y2peK82kh1UiIt1ThqLPoQ1Y/gkjSh0x8Izv4/sXTAwfkPr5QfdPdY5jx+cR/rjn8+PuwqliB555ZyE69n4GeZ4xXR3SHsTMzyZj+o6fIP+fzrmk3IMHB+W4W2Ng3LYuZljBA85kSeUQgwYPiGRvZZX5m7+5DxSHktij+T2YoRG1VJmxUG4OB9/f5zEmdu4yZz9z8YD7jCCs2yR3ORZVJRHK1XVOxkUrduo0IkykjKiVUNC7OFJWF1m4KmcF5rrHj+u4cUDrcdpoDgEJPy8D/0g+8UM0mKT9YTZFKF4Bo7tIwSMsQ+uL1htfj1Mft1MI0XxJuLfR4nUhY8HtVrg46t66jRIuIUR9SPorcWiBcagEexy9ULSu6X5NzWtyKFocmc+0wZ1CfxsphBDx0qgvI7R/90j84kTxkmAJIRrKKXmTqhBCJJukxbyEEOJUIvESQgQSiZcQIpBIvIQQgUTiJYQIJBIvIUQgkXgJIQKJxEsIEUgkXkKIQCLxEkIEEomXECKQSLyEEIFE4iWECCQSLyFEIJF4CSECicRLCBFIJF5CiEDSslWrVmjRooW7KoQQwaDFPx3cZSGECAxyG4UQgUTiJYQIJBIvIUQgkXgJIQKJxEsIEUgkXkKIQCLxEkIEEomXECKQSLyEEIFE4iWECCQSLyFEIJF4CSECicRLCBFIJF5CiEAi8RJCBBKJlxAikEi8hBCBROIlhAgkEi8hRCCReAkhAonESwgRSCReQohAIvESQgQSiZcQIpBIvIQQgUTiJYQIJBIvIUQgkXgJIQKJxEsIEUgkXkKIQCLxEkIEEomXECKQSLyEEIFE4iWECCQSLyFEIJF4CSECicRLCBFIJF5CiEAi8RJCBBKJlxAikEi8hBCBJOnitXjxYnz00Udm+eWXXzYTYRq3VVdXm3UhhEiEpIoXBYriZMXr8OHDZiJ2m10XQohEaPFPB3c5IbZv344NGzYYgerQoQPOOOMMI1h2maLFbeeccw7S0tLQt29ft6QQQtSfpIgXhaukpMQIVV1Yt/Hqq682QlYXn332GV5//XXs3bsXl1xyCfr37+9uiQ7r8/bbb+PMM8/EFVdcgdNPP93dIoRoKiQkXtYNpMVFK6ugoMDdEh2WYeyLwjVo0CBjlcUSPa949ejRAyNGjECbNm3crSdz/PhxFBcX44MPPsDZZ58t8RKiiZJQzOuVV14xAXnrHlooULR+vJONg9l8XGdZ7iMeKHaffPIJPv74YzclMtx+8OBBY3UJIZouCYkXLSdOXuGiUNGyohvpnazIWViGZbOzs92U2LRt29aU2b17N06cOOGmhsN0bk9JSUGnTp3cVCFEU6TVgw7ucr1JTU01FtGuXbvw+eef4/zzz8eBAwfMuhU2BucpOhSuc88915Shm8l5Tk5OmPBFgvvduXMnOnbsaMq8//776Ny5c8RytLreeecd0xnAckeOHEHv3r1x2mmnuTmAL774Alu3bsVbb72FN9980yzTUjvrrLPC3NGysjIjuhTBPXv2oLS01JTheVAcbYcE0zht2bIFx44dM65qq1at3L3U8uGHH2LVqlVYvXo11qxZg/fee8+4xDyut35Me/XVV7F//35zvozdsR48Fx7n0KFDxn32Q9EuKioyx2YdhGjqJGR5sUF7x3V5oajZKZLQMFbGstxHvLDRtm7d2sSzIsH0du3amcbLxu6Hltm6deuwadMmk4fxM4orRY8CQWHws23bNiPGFObMzEzjElNQaGFSiCg+7Ejo0qULNm/ebPbthcdk2ooVK4y4XXDBBUa0u3btavb9xhtvRDwuy61fv94ch0Lcvn17U2eKWqThJjwHCmq3bt3cFCGaNgmJFxtLQ7G9jnYeDxQKigTFktaSF65b645WWiQoFrSiLrvsMlx66aU477zzcPHFF2P48OFG7GiFeaGoUDiYv1+/fsjKysJFF11k0ilgFDSm0dLj/rp3727q4BUXWly0yiiS7GFlGeanu8yJeSl6fleYFizTrrvuOtMRMnDgQCN4n376Kfbt2+fmCsF9ULxokdIqFKI5kHDM6/rrrzfWlR82Yn+w3gvLsCwbdLy0bNnSCM7Ro0dRWVnppoag20SXkG5iixYt3NRa2AtJy4zi5q8vXUM2fAog83np1atXmDtJ64fiSBH1um/W4qN1Za0+ig/dXPZ2ZmRkmPp7YXlaSrSm/CLOcxkwYECYGDEv1ymIXihcFDCKpxDNhYTEi6LE+JXX0rDWGNNtsL6iosKkeS01lmEeilt9oMhQJGhBWaFhnIjCREGhdRYJHo9TeXk5CgsLw6Y//elP2LFjhxFFioaFIuW34ui2UoR4LuxE8MJtXihktNK4j0jDNbgf1pf194sXRcp/bLrfjIN5XUcKJH8HCjAtMyGaCwmJF3sQKUDehkerhtYU4zreyT8olWVYllN9oED07NnTNGBrfbHx0mpiut+6sXz55ZdmSk9PN25gpImumX8MWSQrjkRL98IhdDwm9+kXNgtFzS+ahDEubyCf8Nx4jhQuWluE15HXgoIea/ybEE2NhMTLun1WlKyIcZ1xHe8UKQ/Lch/1ha4fx3HRJWPDp8tYl+VBseFEAejTp0/EicIQTWQaCo9JC9EvThZaZxSweIXHxrUo2LS6OHiXAhmpB1KIpkxC4kU3hiLE2BdFib2HfpfMPzEPYQDbClp9oVXCWBQbLt1OWh6MdcUSAAoEy9GNo2CcClgfupc8Jl1DPxQfBt9Zr0huZSSYl+LNgD6D93SfaXVFc5eFaKokJF4WNlC6hlaMrKhZuGyHS3DOvLTGEoHBawbJOR6LDZ8NOhZs9GzkVVVVNTE4L7TeKAjJhFYcRdbG2ihWXhino+vLutenl5AWJq05Wp78qwOWj+YuC9FUScodT0GiGNECI1ymS8h0Tly2YsXhAYkKF2FjpyjSbWTjjcdy4XAHul0bN240fy/JoRMUFQ4K5cBRul/JhuLFHlIKJmOE7777rrEWV65caQadsj4c+1UfWIZuMjsZ2GnQUAtWiCCT1Me17U20jYlz7zKFzNvjmCiM89Caijfew947/qE2hy3QyqKAUMg4Kp3jtLivZEOLiGPBhg0bZo5je2Hp6rKDgFZofQPttOgo2HRHKWTxupxCNCWS9j4vcWrhwFe6zF53XYjmhAIlAYTxLgbq6TpyEqI5IvEKIBQuup2Mp/nHggnRXJDbGBA41IJBf44b45wWF/8mU+IlmiuyvAIELS7Guhis55ssJFyiOSPLSwgRSGR5CSECicRLCBFIJF5CiEAi8RJCBBKJlxAikEi8hBCBROIlhAgkEi8hRCCReAkhAonESwgRSCReQohAIvESQgQSiZcQIpBIvIQQgUTiJYQIJBIvIUQgkXgJIQKJxEsIEUgkXkKIQCLxEkIEEomXECKQSLyEEIFE4iWECCQSLyFEIJF4CSECSaN9Mfvjjz/Gpk2bcOjQIYwYMQJnn322u6VuEinr5fjx4+bz+B988AE+/fRTk3bmmWeiR48e6N+/P9q0aWPSLGVlZVizZo27Vjes1xVXXIHTTz/dTRFCnCqSanl98cUXeP/99/Hqq6+iqKgIe/bscbfUTSJlI/HRRx+Z/axfvx579+7F559/biYuM43bmCcRWrRo4S4JIU41SbG8jh07hrffftsIDq0dLx07doxpPSVSNhrV1dUoKSkxFhzp1q0bevfubZZ37tyJyspKs9y1a1fk5OSgQ4cOZn337t348MMPzXI0qqqqsG/fPrM8aNAgM8WC50crksLZs2dPM9UF68d6nnbaaRg4cCDatm1r0g8ePGgsyS+//NKsW2hB0prk+UhQRXMhKZYXGxMFg+LDBscGSuGJh0TKRoMWnBWuXr164fLLL0e/fv3MxGWmEeZhXguPPXTo0KhT3759a4SDQsH1+rB//34jYrHgdgpkLNq1a4dOnTqZiW4wrdb33nsPu3btcnMI0fRJmtvIp//555+PvLw8XHLJJTXWQjwkUjYSFENL9+7dw2JbXGaaxZu3LmgNffLJJ2aZQmcttnjgOR09erQm9hYNbqe11qpVKzflZFJTU5GRkWGmAQMGGOuM50WL0G+9CtFUSYp4MWB95ZVXGuuEDas+rksiZaPh3UckEfCmxXs8Wk0M/BNaXd/4xjfMcry0bt3aWJa0qqJ56kzndgpdfToBmJfTiRMnou5biKZGkxwqwRgZhYLQNWSjtnDZBuqZJ954WiJWF+GxzjrrLNODGs36Yjq30x2MZXn5oatJi4uiR5EUojnQJMWL4mJdQ8a0OASCDZwTg+c2zsU8zFsXDJTbQH7nzp3jKhOJLl26GEsvWkyL6RQtxrHqio1Z6GLu2LHDiBdjefURPSGCTJMUL1o5w4YNMwF6ulHr1q3Ds88+a6YNGzaYPNzGPNZCiwWtLtvDeM455yAlJcUs15czzjjDWGwUw88++8xNDcF1plO42rdv76ZGhr2RK1euNNPatWuNtcb4F8sK0VxokuJFaJGwZzBSTItp7KHzC0gkmMdaXRQfDkloKDwuh22wXoyheaHVRZf23HPPdVOi4+1tpCvKcrQuvT2nQjR1mqR4Mc61fPlyM3yAsCfzmmuuMVNmZqaxtuhqvfHGGzVDKqLB+JgVGsbH6DYmAoeBMLjuHTZBoeU6rTIKZF14ext5boMHDzZptMishShEU6fJiRctKg7kZPCbFsqll15qejKtpZKVlWUmumbMs3nz5qjDC2xw34oMra5EA+KMSVEEjxw5ggMHDpg0zlkHGxOrL9wn68a536IToqnS5MSLgmRFgWJFN80PA/W2l5F5ozV4jgGz27iveHsm64L7Ys8grT6KFv9kiWKaSMyK1iSFzw6iFaKp0+TE6/DhwybwTWiJtGx58imyodugOGNa0Swvr8tIt6y+wyOiwQGlFEIem64e57S64uk8iAatQ1qK6m0UzYUmJ1506+guElohbNB+2NDptsWC5WgRWSg2kYSwodD6otCwM4CixfWGwvPkAFrWOZH9CBEkAitedOkYlF+0aBHeffddNzX0yhtrIdFqsqPivfBvAO1YKwbg2WPnh+JmB5MyyE7LK5kwaM8hFxzKwePX50+i6OqWl5ebiefO4RJMo8Amu55CfF0JrHht377dvAWCIrNt27aaOBd76/gGCVoz/FvCVatW4R//+IfJz6m0tNSkcRthoDvSuC0Kl/27RwpNPL2A9cW6ipzXB9adwsyJo/5pEZ533nnmD8WTaR0K8XWmUV5GyBjO66+/btyu+r7WJt6yHGxqB5zScmE+a3XQfeK4J07R4lkUDb6QkK+0idTgadFQ5Eh6eroZ0CqE+PoQ2Mc0rQz+mQ4D7xwt73WXKEZ80wLfUsFxUN5tFDrm/9a3voWLL744qqVig/4kWYF6IUTyaLTXQAshRGOiAIkQIpBIvIQQgUTiJYQIJBIvIUQgkXgJIQKJxEsIEUgkXkKIQCLxEkIEEomXECKQSLyEEIFE4iWECCQSLyFEIJF4CSECicRLCBFI9Eoc0SD4Gu2KigqznJaWVu+3wTZX+I3OTZs24Rvf+IauWYIkLF78SjPffOrniiuuMD9QEOA5sCHytcp8rTTfg8+62w/U+uFHM9555x3TgPmmVr7scMiQITG/du0tww9vnHPOOeaFifb9+dGuo4Vvk+U15Sup+epnvreen07j66m5nz59+rg5Q/Ats/ySEt8Am+xXQ/Mc+NFevok20iu0myM7d+40b//lbxHrewTJEi9+n5T3E39jL7wfBgwYkPD3RYNAUu5qvq559OjRKCgoMBM/6sqG2Fifn+eropcuXZq0/VNYeFP16tXLvKGVgrRx40bzGmj/14d4w/Dc2IApKHwrK/NEe9004Y1dXFxsynTt2tVcL34Y5K233sKhQ4dMHt5s/BiIf2JewpuSn0yjuLJeFFW+DZZvk12/fr35TJuFosZzorg0xjvt+VVufqGJQiqiw1eJez8Okyx4P/Ee4INj+PDhNRO/nB7pYdtUafWgg7vcIPihCjYUPknszUxrgq9RpiDwAxfJhp8u4w/IJ1ciH2q1UFDY0FlXChhFiQLApxvT7A3B81y3bp25aUaOHGmecBQPfnafaZG+dk2xoZXEa8Gvd/PV03SzKCo8B8IP41Kk+K5878SPavDDIvzgxoUXXmiuK0WKos0blfW0Qkhh4/VgnSm8tOway/KlhUHB5vEaQxyDCH8bfszYa/HYT+d5v8HAz9Tx3uJ925CPuvAByN+b9x5/Yy88No/VXH4T3XkO/qcVRZhi4BUjNla6Srz56E56RZP5ot0wNOtpKdKK8n69m6JH4aEVQ4GLhLWgeJNal5T1YN3sg4LL9gO6hMJGcadAiqYFH4D8ffmwlbuepJgXLQvvV37sF4Bs3MgLXSV+b9Dij415vx5koWVDq4X4yxO7nY22pKTEfJfRQhfWX4dY8Ph0DRkDY/zClqUlyU+oUeguu+yyMMGIBc+DLiPFLicnx4gNsedJd5PXjuLmhSL15ptvmqcsXQKKHeH1ppvIMvzALMXxjTfeMDEvWom8PhdccEHM+Fs0bDyG19FCweWn5AivwZYtW4yAW6LFWGxMhteLH0HxQleKx7DlIsVvvMcl/mP7j0srlnl4DWxHgo3JcRu/TG6JFRfy143YY1M0vHWyLiHPj8ewMS/mt3Ww8DpwG7ExL94Dtl6Mg9YVQ6TVxd+/rrhac6FR3EaKGaGLZD8/zxuCjZ836re//W3j9tDUZgPm3FoyW7duNTfg5Zdfbj5LRlOcnzCzbgq3Mc7EH3Lo0KEmH9OscFFUuH9blg3SLwx+bN04sRHxWKw7j2OtL7pv7733nqkr4bEoFLxpmZ/HiOQ28nz37NljvgFJsbExLKaxLC02uqr++BGtLtaFZdiQ7HXknDc8GzpvdNaJAXze+Gww3A9dzvrC68nrbDsSKJbcPxsL43J8MLHB8FrzXFiPiy66yIhMJKuT14SNmfm8bhNhuv09Obcix2tuj8vfxDZk1o0PLMYjeZ4UZu6DE687j8/7kPXk783685qyvlZUWFcKPMvaTplI9eaznPm53QoExYgWMrfZ4/E4fLDw/CmGPD7FyFpFPA9eJ8YGeV7WpbRuI4/Be8Fea9ad7Yj7jySqhA9l3mM8RqS6NzeScgV44RlALywsNBMbF5/+XneMaWxk3nQKHq0mNkDerISWjtcS443PG8R+ADYaLM+b0mtxsCz3Xxe8IdiQbMPgsSjAFFILLSTenLyJ+eSkqLCB8Jjs2YsWmOWNzAZPsaE4/v3vfzcTA66xbkA2DJbhTW+tNcLPsFH42aBeeOEFEwOjdcnGxOvLBs64HL8k/uc//9lYb7E6EwgFlg3Hb+2w7mzw/H15vMaAjZn18z5gbOMntm58aPA3ImzcrCdjgfZjw4RCyHLexs/fh+JihYjbeI2iCQSPzd/Fu1/+5kxnXa3lZ68H0xsCz8d7rfk7s/6NdZ2bIkkRLz5BvL2NdGnoKtEysdjG4X8KszHyBrPiRbi8YsWKGjHkU9efxw8FkVYXRYdPtfrAG5mieckll5gePE7c1+bNm8N68Qhv7OzsbOMCMmhPd5XWBcWGdYwEn64cSsF90uJiA+Cx+HRnWU5eKFp8OlMgec38sBFfffXV5lpzzqEavEaMc7EefEKzXqwn90OLKhYUZQqI9/uWlkiNOZnw3CnOjCdGari2bmzcXihGrBe3W7huRcrCa05RpwUWDyxPsbO/JR8KFElec/5uto48Luvt/+3ixSvWJNL5iNg0iu1JgaJ1QGuLQmKtIjYwK0h2WrNmjVsqBAXv2WefNTeLFcN4rCeKF8WEjd1agXU12mhQNGiaU0T41CW8sXgMnptXgJmPAsybjvkjwbJ0/fLz82sEh09eNgretHQtvFBw6IZQTOL54C3dRe6HViPL0tKjVciJyxy/xkYYDW7jU/+rgA8O9qTyAcjfa+XKlWFCw7rx/rHb7MSHlP9hFklMaN1Q1Hkvshx7YmnNxYLCwt+Sx6ZYcZ/8LShqvB9YnukU9mgWXGNAIaaQW+uvudNojrPtsSPWKqIIWUHyTrTamJ/xFd5kXK9PkN0LLQ7ukx0BFEav9Vcf/Dclb1xO0W4e3uD1eQpT1OmOsaHw2nhhjIcNkyJJ4YsFhYnWHONcFCAKolcMuVzXDW+f+smE18+GB+KBQW92TFihsW4468b98H7wjmmyk9f1igYfhMzLByqvBTs8Yok5j2ldOOsy8nz4W/F3YTr3E8lSbUx4PLmWtTSaeFlz30ILgg2tvmYx87NcfWHcjLGgutxN3gh+19AKAsXKmve0DGiRUXS4zUJLhzEybo9mJVFQvJ26dMEYT6OweON7hOfL7WwwPF4seCOzF4wuFYWO4skHhtey4LEpjrGEhI2VRHINeX14nIY2VF57b30oGtEsVEKhofVsy8WqW33hvmxnRizx4oOUvw3dTV4/e+4sz3ua6bzO/k6Wxob3BO8zPuRj1b+50CjixQZOs94b47J/vvL222+HiQl/CE7E3gwUBAuD4/4YlrXkGEezsNEzcG7hMWjB1NVweTMyqF1UVGTqxt7P1157zbhtFBY2JsInL3sfedMyP2NyDLzTsqNosFHwOBSyV155BS+++GKNy7l9+3YTXGcPJcu8/PLLZv+0RL0uKKFYsHFTCOtyGe1NbMd0sXFxf3S7GPfiRKHl71CXePFcafF4XTbWhbEo24NWX6z7xTicxds5Q1h/Xh+LdclYX15ze06sG39PC/OxnFcYI8E83oZuRZD7jQaPy/NlPbwixTnXmW6tsVjw3rPuZ7Kw9yDvddbDC9fpXtd1TZoKp/RvG3nT+sdhMS7D4LdtXP79cT8UKVpQ0fJRBBgU57pX6Jhux4dFg3XiD757925zY/PGoMXDm4QuiX/4A/PwxrHWGocWcFiGfTpTvBhb4RObAXM2YNaVx6Bg2Z5NxsC8PaMWWmQURwpSrL9L5HGYj/vxBrN5PnSLKEIsy/3w2sTjFvLm94/jYnkr4JZIY6GiwXpQeCzcH0Xdluex/GPLGA/0jw2jcPnHTnnrxuOw/v46sa60lCy8f3g9YokXsdeCwu11Te35+K8L03nvefdN0bLnZo9L7Dgvb3mbl0Idjysc6XoQPqjiKd8U0FslhBCBpNFiXkII0ZhIvIQQgUTiJYQIJBIvIUQgkXgJIQKJxEsIEUgkXkKIQCLxEkIEEomXECKQSLyEEIFE4iWECCQSLyFEIJF4CSECicRLCBFIJF5CiEAi8RJCBBKJlxAigAD/H+S94JuvffofAAAAAElFTkSuQmCC;" parent="1" vertex="1">
          <mxGeometry x="439" y="733" width="167.07" height="161" as="geometry" />
        </mxCell>
        <mxCell id="E0cjX2hLZe1eXGa2LxXt-50" value="一開始Queue的宣告大小，要多少。&lt;div&gt;太大: 讓費空間&lt;/div&gt;&lt;div&gt;太小: 空間不足&lt;/div&gt;" style="rounded=1;whiteSpace=wrap;html=1;" parent="1" vertex="1">
          <mxGeometry x="602" y="826" width="200" height="60" as="geometry" />
        </mxCell>
        <mxCell id="E0cjX2hLZe1eXGa2LxXt-53" value="Relloc動態增加?" style="rounded=1;whiteSpace=wrap;html=1;fillColor=#f8cecc;strokeColor=#b85450;" parent="1" vertex="1">
          <mxGeometry x="642" y="924.9951724137932" width="120" height="60" as="geometry" />
        </mxCell>
        <mxCell id="GGMO2yRkHg3GSXrG5hGa-10" style="edgeStyle=orthogonalEdgeStyle;rounded=0;orthogonalLoop=1;jettySize=auto;html=1;" edge="1" parent="1" source="GGMO2yRkHg3GSXrG5hGa-6" target="E0cjX2hLZe1eXGa2LxXt-34">
          <mxGeometry relative="1" as="geometry" />
        </mxCell>
        <mxCell id="GGMO2yRkHg3GSXrG5hGa-11" style="edgeStyle=orthogonalEdgeStyle;rounded=0;orthogonalLoop=1;jettySize=auto;html=1;entryX=0.5;entryY=0;entryDx=0;entryDy=0;" edge="1" parent="1" source="GGMO2yRkHg3GSXrG5hGa-6" target="E0cjX2hLZe1eXGa2LxXt-39">
          <mxGeometry relative="1" as="geometry" />
        </mxCell>
        <mxCell id="GGMO2yRkHg3GSXrG5hGa-6" value="效能分析" style="rounded=1;whiteSpace=wrap;html=1;" vertex="1" parent="1">
          <mxGeometry x="311" y="513" width="120" height="60" as="geometry" />
        </mxCell>
        <mxCell id="GGMO2yRkHg3GSXrG5hGa-12" value="分析" style="rounded=1;whiteSpace=wrap;html=1;" vertex="1" parent="1">
          <mxGeometry x="629" y="744" width="120" height="60" as="geometry" />
        </mxCell>
        <mxCell id="GGMO2yRkHg3GSXrG5hGa-27" style="edgeStyle=orthogonalEdgeStyle;rounded=0;orthogonalLoop=1;jettySize=auto;html=1;entryX=0.5;entryY=0;entryDx=0;entryDy=0;" edge="1" parent="1" source="GGMO2yRkHg3GSXrG5hGa-13" target="GGMO2yRkHg3GSXrG5hGa-6">
          <mxGeometry relative="1" as="geometry" />
        </mxCell>
        <mxCell id="GGMO2yRkHg3GSXrG5hGa-13" value="PreOrder" style="rounded=1;whiteSpace=wrap;html=1;flipH=0;flipV=1;" vertex="1" parent="1">
          <mxGeometry x="431" y="276" width="78" height="41" as="geometry" />
        </mxCell>
        <mxCell id="GGMO2yRkHg3GSXrG5hGa-14" value="" style="shape=image;verticalLabelPosition=bottom;labelBackgroundColor=default;verticalAlign=top;aspect=fixed;imageAspect=0;image=data:image/png,iVBORw0KGgoAAAANSUhEUgAAAUoAAAEjCAYAAABU0kiXAAAAAXNSR0IArs4c6QAAAARnQU1BAACxjwv8YQUAAAAJcEhZcwAADsMAAA7DAcdvqGQAADdESURBVHhe7Z0LeBXVuf5fLgIqBBCChEtFQqIERLkIBFqJ2gI9FWtLrZUGag9ejiB9DtLzVzktF9tjsadoHxF8FDkqxkuLKBZtIZU2sQ0BRVDAoInBIEjUCGhAuSj0P+/as5LZO3vv2UlmQ8D39zyTmVmz1syayax3vu9ba880++yzz/4FIYQQMWnuzoUQQsRAQimEED5IKIUQwgcJpRBC+CChFEIIHySUQgjhg4RSCCF8kFAKIYQPEkohhPBBQimEED5IKIUQwgcJpRBC+CChFEIIHySUQgjhg4RSCCF8kFAKIYQPSX1x765du/Dss8+aics9evQw6cOGDcP3v/99MxdCiKZOUoSSonj77bdj3bp1Zt0KJOc2jXA9Ly+vZrsQQjRFAne9169fj5ycHCOIw4cPxxNPPIGCggIzURTfeecds8xtFNTc3FxT5tSjHHk3jcDgK+eioNpNEkKclAQqlBS+H//4x2b5Zz/7mRFG614vX74c9913n1m2liTzsMxtt91m5v7kY25GBjIipsGX/hBT569E+WE3mxBCBEigrjetQ1qStCIj44+0MgmtSS8UUAolLUyKZ3wolFORd9Fo5A7o4qYdxkebCpC/pQopfafg/uemI7uFu+k4UF20BHMeWYb2P1yF2aPdRCHEKUVgFiXdZ+tu16eTZvz48aYMyybsgmd9F7N/Odud7sLCZ/+O52dkA9sW4f+eSMQyDY6qbYVYWVjurgkhTkUCE0r2bJN58+aZeX2wZew+6k9rZN2QizHOUkF5SShJCCECIlCLkjSkB9uWaVSnjuNut3YXa3FjmrPz3XUv0baVY8lEJ23iEpQf3YX8+VPx3RGhOOiIMTdg7l881mrpEkxy0sfeXWxW86aG8mVkzHX2TNx91awTz/4Pl2DZLybh0qHMMwLf/a88lJgYazU2LZ2JSZcONvsbfOmk8ON6qSpG3i9uwFi3jozV3vpwMaqOutuFEIEQmFCyM4YutB+xOm0SKRuXXR+Be+5xZrvQeqOoRsGdU7GwtAuunHEP7rrtavTZX4C8n12PeUVulq45+Pd778Hsa7LMas5/3IN7nPV77r0SoZR47ELeTVOxEqMwZdZsTLksFbtWzMXEXyxD8cO34PonqjDwhjm4Z+4UDGrliKH3uJZ9jtDnTsK9RYcx6N/vco47G5OHtMG6uydh4p35zhkIIYIi0F7veHCAOUWSHT6299sLtyXW8x2Fo1XIX5yHgo7ZyL0q201sBOsWYRmm4vEHHfEZPw5XX38Xli6agoGORbhsxcqQCKWkI+eKccju1d4U6XHBOIxz1sddMRC+NvW6PJQPX4ilv56Mq6/IxfQHH8ecq1JQvcKxJB/qjDlPL8b0Cc6+JkzH4rvd4+Z7LV9HaH9xB/K6TMfjq5biruuvdo6biyn/uxQPz8hG+ZO/waJIYRVCNJjAhJIWYTyh41Cgu+++2yxTKNnT7YVlE3bbS57H3F/NdadbMembYzH1r10cobgfkzPdPI1iHKbOGI0Ud81wUQ6y+zq25q6dxnJtHI74TvDanSkYNXKUWcqaMBHjOprFEPa423c6cumy5U/4k6ObuROnICsi3pB11WiMdmq4cYtitUIERWBC2b17dyN28eKM7OG24yc5LMgKqy2TcG/56/nIW5rnTiux85zJWPrSUkwfFSZtDWdIH6TX2VUKUmg8bqhqvFBG2X/KGSHLtN95A828Fve4Hqq2vIlNjl1bGxf1TN8IxUQ3VTZezoUQIQITSrrWZMGCBWYeC1qNFEr+QsdakLaM3YcvExairKwMZW9txap5VyOl5F7cMmUJSoLqxGjZOkrHUIDE2X/rBMaAVn++3/mbhat/aeOiUaZx/pFSIURiBCaUtAbteEhai4nCvA0Zf2lo0Rrp4+/CPTdnA0WLMO+Rr4a7GRLTXWjdw8ZFo0xD6j/6QAgRnUA7czgeklYiLcRoHTaR2F/lkGnTppl5Q0j/6WxMGQkUPzQPS7a5iYZ2aH2OM9sRJa5Y6on5NYJELMCg6ZGZhR6O671x8yY3RQiRTAIVSoqk/RkihZI/W4wWs2Rskr3fFEmWifaTx/qRjsm3TUb2vmIsunuJRwD7oR9DfkWF+FOYgFYjf2keQiMgG0eP7ulm/unnx3FAzvBRGNMbKHny3ogHgwNHADyyLIAOJyGEJVChJFYsbS84X5JBweREcezTp0/N24Vs3saJpEvfKZg+dSCqHRd87iNWKlMw6tu5jowW497JkzDz4WVYuXwJZk4ci3ta5CCQn2ZnpSPHma184A4sWr4Seb9ahPBfsyeBFtmYMiMXWc55zfvJd3HDr5Zg2QvOsRe6IwD+Vg29H0SI4AhcKIkVQL4Agz3dXKdoWnFkZ459/RrXg2LgtOmY3LsaxQ/cgzzXpEq5bDYevi8XOe3ewbK7Z+LW+ctQlTkHD8/Khn2tRqPokYvZzv6zj6zDvbffikWON5zUjiCXlNGz8cen70HuAOCdlfMwc/qtuPeZcrQeOR1L75nsPByEEEGR1DecCyHEqUBSLEohhDiVkFAKIYQPEkohhPBBQimEED5IKIUQwgcJpRBC+CChFEIIHySUQgjhg4RSCCF8kFAKIYQPEkohhPBBQimEED5IKIUQwgcJpRBC+CChFEIIHySUQgjhg4RSCCF8kFAKIYQPEkohhPBBQimEED5IKIUQwgcJpRBC+CChFEIIHySUQgjhg4RSCCF8kFAKIYQPEkohhPBBQimEED5IKIUQwgcJpRBC+NDss88++5e7HBiHt+cj74nnUfhqCd7ctgvVTlpKjyz0y8rBuP/IxdUXpIYy1pCPuRlTkeeuJUL2bauw9Pp0d00IIZJHwBblLuT/ahIuHTMV85bmo9gVSVK9qwTF+Ysw8/vfxQ2PlLipjaBFa3dBCCGSS8AWpccyTM3C6MsGoYvRs09R/peVKK7iMhmI6c/+EVMucFdRgmW/Wub8jUN1OVavKIbZRcdxuGf1PRjX0WwRQoikErxQDl2IT2+8HXf8NBupLdxkcrgEi67/Lu5dF1rtccNS/P3/ZYdWEqD4t2MxaXG5WZbbLYQ4ngTseqfj6iV/xD3XR4gkaZ2F3PHj3BXHSS8pcRz1BNmVh7xnQiKJc3KR+0OJpBDi+BG4UGZdEDt2mHJGe3fJ4ahjZLqLfhQ/mYf8faHl7B/lYnRKaFkIIY4HSen1jkX1ilsx+L9WhlauWYiyX48OLcfDsSanfn9uSCgda3Lhs7MTFMpKrP79AyjCSNx8Sxa2P/UM1pTvw5fHgLbnjMK1P7kcPVseQOnfVuDFtaXYd8Qp0qojsr6dix8NjuiVP7ATRStXoLC8CoeYr3kbdEwbhh/c5OwjlEMIcQpzHMdRlmPZclckHcYNGe4uxafk+T/VWJMDv3d1A6zJKqxZ9AheQRYu/7dRGNClDQ7sKMTix4pQuuoR5K3bh54jvoPv5AxAavN9zvEW45ltblFyaDPy7luM1W9/idSLRuE7V4zByPPa4WBlZahjSQhxynOcLMpqbPr9Lbh+YXFouFDvyVj659uRHRnHjKR6JW795q1YaYQyB7P/vhi5PcyWBHAtyr1Ax+E3Y/q/pbnpB1C05LdYvcNZbN4TY35+A0a2DW1B+fP47WOv4UDGVbhz4iCTdGjtYty1aid6f/dOXDfYJIWoPoADKW1hiwohTl2Og0VZjYLfXl8rkh0HYvrdCYikw64Vf3JFEki56kpcmbBIeumJoZdZkSRtMbhvyGFuM+jyWpEk6RfgvDOc+Z4qR2bD+eLgAXfJRSIpxFeG5Arl4RLk/eyHuGHxJlcks5D764cx5SKz1YcS/GllgbvcA1dfMQ4N6sPp0A2927jLLm1OP93Mu3Xvbea1nI42kXkHDEamk7bzpfuwYHkRtu/90t0ihPiqkDyh3LESM6+eiLl/cYf1pObg9iV/xOxEg4xbClDwurvc90qMGeUu15fmLd2FurRM5OzbDkLuLbkY2bMlqt5YjUd/fyfuuv8ZbPzY3S6EOOVJjlBuW4Ibrr0Vy7aFfsCYetl0LH1+MSbHGToUyaY1q7HJXc66LAcD3eUTQkomxkz+f7jz59dhzIWpwMebseL+B1C4190uhDilCV4oHZGc9JN5KDBdwinImrQQzy+aguzI92DEpRirX7A/aMxCTs4JlclaUnpj5Php+Nm43mh5rBKbN6jfW4ivAgELZTmW3L0IxaYDJgXZUx/G478cXfdXOn68vg7F7JUm52RjeEIxzeRwqPoAIqOSbTt0BB36lq1iu/VCiFOHYIWycBnyitz3BQ2fgtn/ObBBHTDlGzbVvCAjZeQgJP6L8ODZt3Yx7vz1vVj8whqsf2U9ilY9jQV/eA2H2mRi2BC9lUOIrwKBCmXx+tW1v98+tBF5v5qLuTGnRSj4wM0bRhWKNxW7y47enndi3e6OGYOQmXIQlRsK8eILL2L1hu1Az1Gmg2eQxgcJ8ZUg0AHn+bMzMPVJd8WXbNz+4lJMznRXayjA3KE3IM+47wMx/U9/xJS+ZoMQQpwQktPr3RhKy1HuDjIH+qBPHSEVQojjy3F9KYYQQpyMND2LUgghmhgSSiGE8EFCKYQQPkgohRDCBwmlEEL4IKEUQggfJJRCCOGDhFIIIXyQUAohhA8SSiGE8OGECuXGfRvdJSGEaLocV6F8cfeLYeJ4y4apYetLyh92l4QQoulwXIXy9X2b8D9bf+2uhUPR/PPuP7trQgjRdDiuQvnvvSebeaTlWHmw0liW/93/F26KEEI0HY77a9YoiiTt9DQjjoM6DgpLEyIum/Iw67lSs5j5vTuR20S+O9f02Yi8WSuAJnvNmnb9ki6UdKkHdhyIyenXuykBkT8XGVPz3JVacheWYfZod6UJU1HyE0x4P9Tgo9LmJjz5jevQy13F0Qrkb52PZz7egK3HmNAOme2nYf7QcehkMkRnd8V83L9jNTYc2Y8DaIVeZ4zBdf1/jtHtW7k5IqnAU/+4FgsOAYO7P4UFWTU1AKrzMX/z77D64H7HF8nEmPTfYEavbu7GEFs3X4tbP5+AZ4ePQ+BfyjAiWYWRN0/HGD1TDZWr7sUDa1Nx1Z25GOSmRacxQlSJ1b9/AEV1Ps+cmcBxE6VpC2XgrjetQ7rWnFuXesn2JUnqqOHnJMpQVhaaVt2WjbypGZib724OnHzMzQhm/61adkbmad3qTL2ahbZ3a5tZK5IHCzD/5Wsx56MNjoz1Qk6HcRh9RivsObwHjmTFZHfpNFxX9gwKjrTDAKfMuDM7Y//nKzHnlRvw1B43UwQHyhfgEUck63BsLRZsmI3i5uPxm6GPYaajzqvLZuAx7xd79zyIBz/sjJv6JUEkHTZudR4sZ2VhgEQyLhsfn4VZjydhREnGVbjzzjtrpqsySrFi1r1YHXIIEyZp9UsigQulFUZakmT5158181hiyXz/82Z4Bw/zjf/H98N6xBMh/frZuH04kFeUNKUMjG6Z8/FozvLw6ZIZyDb/kf64ts8Ikw+OFOa/cQeWf+lYeN0ewwuXP4W7Lp6JOSNfwMoRE2rFtA4VKHSE9YBjeY7LeBS/c8rcMWI5fnM2S5TikYqCUDYvB/OxoGKtuxLB7gKsPJqJ8Vk3YXD7TOQM+CnGOMfYUFVhM2D5208CPWZgfDs3SSSdtLHTHdEKyqqrH4MmXuXYlPtQ8kY9lfIkJHChZMzRxB0PVfqKpR0uFDlsiPlYftPek+up01h2v/OUI0aOiHb+aa3YVD2JZ2g2njENd/TLdJxnDy1iuc8uJqjSCd3a1SpX/5RY0rofBVvvw0rk4Mddonyo6OhhR3R7Ia2Du968F7q1cZcdDpTPx4NHJ2DaebGlW5xqDEJWBrCv6tQXykC/4G/cbUfg/rvfL4yVSPGjWN4/ZKERy/H//L4RQRIrZmk7dhpGOXatcxzyUenuei2RX4isG8ukWz0VYVHPCQtRNjeUKay8496bfDXby7Fk4ljMc45tyb5tFZZeX7ceMTm2FS/spgXYHzfVWJPA1sp8bHXmOaljEB4N9KMXsjtn4pFdpVi9PR9XdBiNToc34KFdtCQ7YVxaTiiby+7Smbjrkz0Y3XsmRh2+BQ+66eHsxh6KNnX3WAV200VnqMBYorvxgwvmI7NBj95QfMobse044mZMH+v62JWrce8DRY7tQorwwKwixwUfiZv/cwzqeuFuPK2T4yZODLez6PKt2OMtVzf2FnZcEnZsh4jjmhjhW1m4+RrgaZOvY00MNRQ/rCkZp87R6ubgHhsRdTJ5ETq/sBilp6MLTo5ZjPlFiSOG16u2vo3CrWtqlBhjTR2/59QqqPqFnSuJks/UqQRZTnrqS841K3PTGxBbDdSi/D9HBDlO8s+OhUixjGdZUkj/EmXcJMs2lPzZjtANvx2zwwSKIuaI3PbbscqNZZYtzK0Tyyx/2JE+RzxtvLPsxduR/eRUTHq43GwfPZfpC5HrLFNkTR6vSPZ2RNNTth4SaThQ8QSe+QJom3IlxtQYgPux+/Pdzrwd0lq9i6fWj8e4v2ZjxF9HYULRXSioDuWKRa++i/FQL0d0P5mNcX9zyhVNw6MHe+Hafk9hmld19zyK3+zYgM4dfoOfp8fwm7teivHNt2J5yXKUflaB17Y+gtUYgpwenVBcch+2dJqGG7u4eesDb3inwVQ5YlAT/7p5JLD2gdo4VtoYTDcxMWeZYsM8MQQncTyC6jluqrvVwLq5jT+U52aMpFD/frVT2ksJnv4D8COTxyuSFDBP2Ti9boP6O1b83hJs9u74gyoj0Pve2uw53kaUOA0+s3+UZj4w1xzLXKeaeGK4IJQ+NwtP40fuNubdh6IH8py9NoRQXTqmOiecNgBZZzn73xq5p41Y44hexxGXY1BA9TMxTtOpF8rD6WbnNi96YBbyNrmZamD5WSjpb/M6/4ezSrGizv8wPoEK5UUdBxph5MDxaGJJIbVEutuWTfvqnGkcijHvOxnIyAhNU5/Mxu2/nBwuUvl5jqUXkT56NhZOAPIeX+LIXIj065eGW5iZk5Hr5CneaXPEImTF5o70FHbKhou1H7uxurIgFE/s4e0I2YM9jniS4u3T8OTBbhjRaQQGNz+Cis9XYuaG2Sg4GNoejQM7foc5FWtR0SwTozuNw/gO/Z1naQWeemsmltvOHHYUvfEgXmsxGjf2z4ndCdM6B9MunIbMg/fhurXXYs7ezvjpBXdh/P6HsODTEY7LfR6K3/gJfuAK+XXrHUE1vfPxcMSqsLSuFUdh/J4jHGWF9e4oSJxKVDmWZJjgOMfNralHqG5s0LUWUhrGXDMSHfcWYY33NnX2k3VNuHBXVjkSl5HlEQGn7MQ44j4wq068j51XHTMyneNV1TbqTSWO5Z2JrIb2DDvn473Wg77pnI+zx5L6NDsDHzSOF+A8uH5k9uec36go/zNT347IujDmmYfjVz/HSiwsq2s9MlZLAS4trCuAvL/C/oesZ+RDyYdAhfI73b6Dyb0nxxRLimOwhPd6l704CoUUztm1pmJ+kWMpTsjF5IiwW3rPbGDdrhqhDBGyPmuF10navjMiTyTp6MEOpKmTsMTrCdSHT/JR8LkzbzkOl3YPJYXj+LvtfoOnchbgjkHzseDSx3AT44NH85G/M0b39eGV+F3pSucWG4IZwx7DnEEzMePixbg/Iwfdjm7A/LeexO5jpXjqtTuw/GimI4JzkXN6qGgsWnWegDk5hVj7rWKszJmPa7vswEOlq3FB72lIe/dWzPjIeQY51uqT/X6AdtWOSG/Z4JaMQeVmlOyN0YiiCEewpCGVFtBzMXpt3bqN/GaE5ZaWaqzOqg+9hZy0iFNIS+3oiMYK3Lsq0fpHxvtorTnX5ptZzt5rhaLywyrHqk6NLbg+1LFEo55PDJzzmTXLsebM5FrjXss+htgjY1TCrr1f/SrfKMG+GCMfolrl0US6a6qTug9VH7jrCRCoUFIIGXuMFMvjNpDcseSWOm41nsxzRascO7c7M8eFtuJnp7F3FzNDDYxBZmSMReGoVTXCS6vTn3RMfpx5a61b664nSunO1XjNmWd2uhT9Q0m1mOFC3ZBzjsfaa56JUZ1Cyl/w6RYzr0PVFpj+63ajPa6849r3GuM8Xhw+L0Zx+RNYYCzSUizYSEswNNnxna+9f61Zn7/DrNahdNv/4pk20zCtVyUKq0rRLfUm3NitF3p1m4brUtuhYm+xia/GxHUtTwyOZfGf1rULNf4wUTN1q91WO4XHUg1RhMv0RjtW8T6GEFguAVfPNPSykpCbSUvMCEJIQEMubSU2v+W4secPaLBQNooad9mdImLANWJfEyqIEyZoIMZSPwEEJpQUScYdOazHK5aMRwZvScahV4+QEBjS0bO3M2Oni7U6w6bZMA5z/tyQ2+5Yp/XqgPEQimE6kyPUxXePDbNq41OB1z7hEJt2GNw5UiZ7IbMtVW439sdwsbud1spdisD0UsejGkeapUQdy2k7ZNo272TWW0Xr8tu/HI86reGn5zNUsBsfH3HEoVVt4LNTK6cpf/kxPnbXo2Ke7EHjWIrxRuBHMGii2+itqNm4qKkbXTyPMHimsFBBLNyY3J13XoVMx11/YJZPLNAcM2Q9GrfbFUQjoHsc9zueBd5EMK6yteoaGyaIgrHUTwCBCSXd67Q2aUYcrVgyLVFsXm/csmtDLNGKXfDaisbFfrIY9R9ZmY9iTy95woyebQa++7vsLp8WYK0Z4J2DIVG6tQd3HWPGSq7e+WhtzM9xmQv3hOya7I61PeRhdB7g7NFhfz5Wezp9DlSsDl2fFgOQ2WdG3bGczjQnLWStnpd2v1mfViccsB/5b/4O+9P+G9ea4UKd0c4R0/1f1krzniNOS2lzbpxxng7GrYrhXtc3thUJhcVdDBGybmLiiNrNI5xGaMvFq1u9GYTcmxlrq0LckTRuh0jVh6tDbrc9dwooxecNx8pt6gPuzTnwum1048+Xh3XWNJa0sx1HPEZ8MZk/SAhMKOlecxiQVyyjddZEg7FNEpnfpidM6RJM4s8aPTHJ9OtzkYs8TJ1Y23FjcKzIml5vY4UWo/Dl2hymB91drsWNR4YNaM/H3DDrsRwFhY4U9e5Z23kUhwMfbzFuN9pdgAtMSgRdb8SNHTrhwMEHccvff4I5r07Djc78QUdcO7X9Oa49J5St4u0bTI/4dRvZKeRw5nhc1z3TsfY2YP4r4zHz1bswf/1PcG1ZgWP/dcL49Bsx2JSsPwcq7sJDhybgpr7uRUZ/jOjUC6Uf/i8e2l2Bit0L8GjVfuScPTq+UFJAXEsuzO3lsI7n2Mh+lHBsy0soVlWEpz373Ph4pMu8EXlhvw4JubXoZN3oQbjcEU7WLbwntRKrH/d3ozc+Hm49mtiaI72Rscxw0jDgfOeYb5Wgytvgrfi8VZWQ2x2Kj7ou/HHHnkNhTOu3UfVzHmihcEl4bJmjDFawkyeiUy0oAo1RRoplonRt09XMvWMoExPJ8F7vjO/MQzqH7rhjH0OMxuyyVbgd8zDW5uP0eA/k2mxubNO4zO724pHRYpTpmDyRMVA35mkFMiwG6g4VCqtDbN7eH4oxZp5xbowe53bIGfwYFnQf4YhOKfI/Cf2McXR3R4yGjY87tjIzazEe6vMD5Jy2Hxs+WYnl1RVod8ZozOj/GGac4wlc1ofDBXhw+xaMypyG/p67p3//+ZjT4YhjaV6LCSWr0brLfMzMTGDkJ91TOxzIxgHdITkJubfRcK3DmvigM3F4iBmW4iVa54Qn7mbjjByy4s1X1T+Rxsif99WWS+z32M4xL8xyrEdHsMME0RUfJz31bP8jp40d5Ti89vgNHfrTcMzxnbrGsn4bWz+GS+xwoPDrG8B40Bgk5aUYFDwOB0pELOlyU1wJy9CqpNDylWv1cd2FEE2Fpv2Ci4YQqEVp8VqW8eB2K5L8aaN1vSWSQpy8VK4qdOzFYDtxTjRJEUpixZK935FQIJm+/BuhX+pQIDmUiGksI5EU4mTF80scN+VU4Li9uNf+DpxECiGFUuIoxMlM7e/16/zS6hTguL/hXAghTjaS5noLIcSpgoRSCCF8kFAKIYQPEkohhPBBQimEED5IKIUQwgcJpRBC+CChFEIIHySUQgjhg4RSCCF8kFAKIYQPEkohhPBBQimEED5IKIUQwgcJpRBC+CChFEIIH5q3bBnt6/ZCCCEszf7lcOzYMRw9ehScc3KS3M1CCCGMULrLQgghoqAYpRBC+CChFEIIHySUQgjhg4RSCCF8kFAKIYQPEkohhPBBQimEED5IKIUQwgcJpRBC+CChFEIIHySUQgjhg4RSCCF8kFAKIYQPEkohhPBBQimEED5IKIUQwgcJpRBC+CChFEIIHySUQgjhg4RSCCF8kFAKIYQPEkohhPBBQimEED5IKIUQwgcJpRBC+CChFEIIHySUQgjhg4RSCCF8kFAKIYQPEkohhPBBQimEED5IKIUQwgcJpRBC+CChFEIIHySUQgjhg4RSCCF8kFAKIYQPEkohhPBBQimEED5IKIUQwgcJpRBC+JBUoVyxYgU+/PBDs/zXv/7VTIRp3HbgwAGzLoQQTZmkCSXFkEJohfKzzz4zE7Hb7LoQQjRlmv3LwV0OjO3bt2Pz5s1GDNu2bYszzzzTiKNdpkBy29lnn4309HT07t3bLSmEEE2PwIWSIrl27Vojin5Y1/tb3/qWEU0/Pv/8c7z88sv4+OOPcfHFF+O8885zt8SG9Xn11VfRvn17XHLJJTjjjDPcLUIIkRiBCaV1pWlJ0nrMzc11t8SGZRirpEgOGDDAWJvxBNYrlN27d8fIkSPRqlUrd2tdjhw5gqKiIrz//vvo3LmzhFII0SACi1G+9NJLprPGutgWiiGtOu9k45Y2H9dZlvtIBArrJ598go8++shNiQ63V1dXG2tSCCEaSmBCSYuQk1ckKYq0GOmKeycrqBaWYdns7Gw3JT6tW7c2ZXbt2oVjx465qeEwndtTUlJw1llnualCCFF/WsxxcJcbRceOHY2lt3PnTnzxxRc4//zzsW/fPrNuRZQdNxQ4imTXrl1NGbrqnI8YMSJMZKPB/e7YsQPt2rUzZd577z106tQpajlak9u2bTMdRSx38OBBnHPOOTjttNPcHMCXX36JsrIyvPLKK1i/fr1ZpgXaoUOHMJe+pKTECDwFd/fu3SguLjZleB4UYttZxTROb7/9Ng4fPmzc/RYtWrh7qeWDDz7Ahg0b8Nprr2Hjxo149913TViBx/XWj2lr1qzB3r17zfky1sp68Fx4nP3795sQRCR8QOTn55tjsw5CiMYRmEVJ8fCOm/RCAbVTNFFjbJNluY9EoUC0bNnSxB+jwfQ2bdoYoaCwREKL8/XXX8fWrVtNHsY7KeQUWIoRRSiSd955xwg/HwJZWVkmrEDxouVM0aPQsZMpNTUVb775ptm3Fx6TaYWFhUZI+/XrZx4QXbp0Mfv+xz/+EfW4LPfGG2+Y41D0Tz/9dFNnCmi0IVY8B4p3WlqamyKEaAyBCSUbZkOxvd92nggUJQoShZlWoBeuW6uV1mc0KEy0Dr/+9a9j6NChOPfcc3HRRRdh+PDhRlhpXXqhgFGkmL9Pnz4YNGgQLrzwQpNOsaR4Mo0WLPfXrVs3UwevkNGSpLVJQWZPP8swP0MOnJiXAhsZTqBlzrQrr7zSdJL179/fiOunn36KPXv2uLlCcB8USlratHaFEI0n0BjlVVddZazGSCgYkR05XliGZSkeidK8eXMjbocOHUJlZaWbGoKuJ91qutrNmjVzU2thbzgtTgppZH3pXlNkKLbM56Vnz55hLjmtOgoxBdvrAltLllajtWYpdAwVsNc9MzPT1N8Ly9MCpJUY+cDgufTt2zdM+JiX6xRfLxRJiiWFWggRDIEJJQWQ8UavBWWtTKbbjpzy8nKT5rVAWYZ5KKT1gYJGQaJlaEWNcT2KIMWLVmc0eDxOpaWlyMvLC5uefvppVFRUGAGmQFkoiJHWKV1/Ch7PhR1MXrjNC0WT1if3EW2IEvfD+rL+kUJJQYw8NkMYjFt63W+KMf8PFHtanEKIYAhMKNmTTbHzNnJaa7QSGYfzTpEDzFmGZTnVB4pRjx49jFhYq5JCQWuQ6ZFWm+Xo0aNmysjIMK50tInubeQYzWjWKYmV7oXDVXlM7jNSRC0U0EiBJoxJejt5CM+N50iRpBVJeB15LfjwiDe+VAhRPwITSus6WwG0gsl1xuG8U7Q8LMt91Be6zxwnSbeWIkO328+iorBxotj06tUr6kQRiiVoDYXHpOUbKYQWWp0Uy0RFzsYh+XCgNcmB+BTjaD3hQoiGE5hQ0hWk4DFWSQFkL3akWxs5MQ9h54YVz/pCa4uxQ4oEXXdaVIxNxhMbihHL0RWmOB0PWB+66Dwm3etIKHTsmGG9ornm0WBePijY2cOOHYYgaE3GCjkIIRpGYEJpoRjQvbbCZwXUwmU7RIhz5qWV2RjYscEOFI53pMhQPOJBgaGgVFVV1cRMvdAqpfgECa1TCrqNjVIYvTCuyvAB616f3mpazrRSaVHz10osHyvkIIRoGIG3KIofhY+WJeEy3Wqmc+KyFUYOiWmsSBIKCwWYrjeFIhGLjEN86Lpu2bLF/H6cw4UoYBzgzUHgdGGDhkLJnnqKM2O6b731lrGC161bZwaQsz4cW1kfWIahBnZAsUOpoZa5ECI2STM9bK+2bbice5cpmt6e78bCuBytxETjc+xF5ksyOFSH1iPFiqLJX7NwHCT3FTS09DjWctiwYeY4djQAwwXsPKJ1Xd9OGFqqfDjQpadoJuq2CyESJynvoxTHFw5iZ9jBG/IQQgSHglknOYxPshOH7jcnIUTwSChPciiSdN0Z/4wcaymECAa53ichHF7EDiGOy+ScliR/oy6hFCI5yKI8SaElydgkO3L4xiKJpBDJQxalEEL4IItSCCF8kFAKIYQPEkohhPBBQimEED5IKIUQwgcJpRBC+CChFEIIHySUQgjhg4RSCCF8kFAKIYQPEkohhPBBQimEED5IKIUQwgcJpRBC+CChFEIIHySUQgjhg4RSCCF8kFAKIYQPEkohhPBBQimEED5IKIUQwgcJpRBC+CChFEIIHySUQgjhg4RSCCF8aPYvB3c5aXz00UfYunUr9u/fj5EjR6Jz587ulth88cUX2L59O3bu3Im9e/fiyJEjaNWqFdq3b49zzz0XmZmZbs7YlJSUYOPGje6aP6zXJZdcgjPOOMNNqSWI+gghTk6SZlF++eWXeO+997BmzRrk5+dj9+7d7hZ/Kisr8dJLL+HVV1/FBx98YESJcF5VVYVPPvnErAdNs2bN3KVwTlR9hBBNg8AtysOHDxtBoTBaQbG0a9fO16Kk9bl+/Xp8+umnZv2ss85Cly5d0KFDB5O2Z88eszx06FCzPR67du0ywhYPCh33SQYMGGAmL0HWh9eGljWt0x49epjJD4r0jh07cNppp6F///5o3bq1Sa+ursbbb7+No0ePmnULrdzu3bubOsYSfiFE/QhcKD///HO8/PLL+Pjjj03jPvvss42g0O32E8oDBw6guLgYH374IU4//XT069cP5513Xp0Gf+zYMTRv3nhjmC702rVrjUVIYRkxYgTatm3rbg2+Pl6hpHvft29fc41iwXzbtm0z1zSWUDLdhgoomrzOrE+3bt3wta99zaQLIRpHUlxvWjXnn38+Ro8ejYsvvrimcfvx7rvvGlEiLM8pmlUUhEgSWmrWbaZ15xVJkqz68HocOnSoxkqNBbdTXFu0aOGm1KVjx44mPsqJwksx5fWnpRtp0QshGkbgQknr5rLLLsOQIUNMI07U/aPVZN1kWqHsIEkmtCbff/99s0xrMtL6SmZ9WrZsaSxBuv2xDHqmcztFNVrnUiyYlxOtyoCdBSG+siTFomwItOyshdWpU6d6iUND8LMmk1kfiiTjmnSTY1mVTOd2xkTjWZSR0F2nJUmBpSALIRpPkxFKxtzojhLGMrnO+OBzzz2HvLw8My8qKsK+fftMnsbAfVtrkSIYrVMl2fVJTU011jatxmgwnQLJ4UcUv0Sgm15RUWGEsmfPnvUSWCFEbJqUUFro9hYWFqK8vByfffaZSeOcMcO//e1vxhpsDCxve7rpVqekpJhlL8muz5lnnmmsWB6H+/fCdaZTJNmJFA/2iq9bt85MmzZtMlYo45UsK4QIhiYjlF62bNmCgwcPonfv3hg+fLjpoKCrSpjO7YwxNgRv7JFixaE0fiSjPrQm09LSTE91ZFlak4wxdu3a1U2JTZs2bYx7zol1YjkOtOcYViFEMDRJoaQVNWzYMDNcp0+fPrjoootw+eWXmyEvhPFD2xFTX9iLbYWJw5ToevuRrPrQpWfsk/Wx7jXdZ67T2qSQ++Ht9Wav/MCBA00aLU1rNQshGkeTFEpaeYyxeaFY9erVy10LdXbw1z/1gdYWhdKKEo+TSIdHsurDGCLFmlapjXVyzhijjWHWF+6T9eW8vlauECI6TUYovaLAmGG0sYm0wDgRuqz1Hf7CAeRWPOiqxvuF0PGoD2E92EPNXwBRIDlQnyLcmBgje9VZ/8hf7QghGkaTEUorOKS+llmieN1uuqeRQ4K8HI/6EA4Op2Azdkp3mXNakxS7hkKLmdazer2FCIYmI5QULhuTi/WrEooce3UJra76iAmFg9aaheIU7xc1ya6PFztWkp1M3AfXGwqtSMZLeb6N2Y8QopYmI5TsVLGuMN3QsrKyMFeWMUA7DIc9vbYjhdClLigowPLly/HWW2+5qeEwDmgHd9NapBDGozH1qS/s0KF7z/2z5zrRn3wSxjRLS0vNxHPnECGmse5+5yiESIwmI5TsVOELJyhidB358giOUdywYYMZI0ghpGARdlZ4hYnvieSbgiiG77zzTtRB4BQ2CiqhMPn1KDemPg3Butuc1wcOiqdly4m977SS+XNLDmWq72/QhRDRSfqLexlzs28Touj4vWaNVhpftmsHdkdyzjnnmBdt0IqzbN682UyEFhmPEWlN0dqiyJGMjAwz3CcRGlIfIcSpRZMzOSg83/rWt8yYQNuhwvgfrbZvfOMb+PrXv15HlGg98WeIzMdxjtFcTu8vbeJ14kTSkPoIIU4tjsunIIQQ4mRGQSwhhPBBQimEED5IKIUQwgcJpRBC+CChFEIIHySUQgjhg4RSCCF8kFAKIYQPEkohhPBBQimEED5IKIUQwgcJpRBC+CChFEIIHySUQgjhg16zJhoNP762bds283Jjvjm+b9++CX0GWIReKE34vtOmSFOv3/EiUKF87733zNvMI7nkkkvwta99zV07eeCnI/h2c76Yd+jQoW5qXRLNZ+HXIEtKSlBVVWW+k8Pv82RlZdX5nEQi+fgG+TfeeAM7d+4039rJzMw0n7DwfgaCn8rgm9qzs7MDf8mwFUl+xuKr3pgsfEn022+/bb777vdpj8YIEf+n/HJnJOnp6fX+pEgsJJQhAne9+RbwsWPHIjc310yDBg0y4kkRTQYUilWrVgW6fzZ+3iBr1qyJu99E83nZvXs3/vnPfxrx41vSe/bsab7nU1xcXPOxMpJIPh6fHxOjUOfk5BiBpGh598OvRJaXl5ttyXgTO68/v9tDERexoXi+9tprYW/aDwI+oAYOHIjhw4ebiSLJ/7f3HkiEZNXvVCHpMUp+n4aNnJ9iPRngR7oovPy+Dj8qFotE80XCT8nyI2j9+vUz3/YZMWKEudEpery57b4SyUfhZD0ogl26dDGNhIJFcbXwY2v8bG3Xrl3dFJFs+EVNfkcpKKuuPvCY/G4UBY/3iggGdeZEwO9hM87Gb+Ew1haLRPNFYiMd3u/20AqPtPYSycc8jAXyq5KE1gW/52Phw4lCSndcX2T86sCHJb9Dz2+8i2BoMcfBXW40tHDYOBmPtI338OHDxhXgky7yCfvKK6/g73//e81XFPkkbN++vbs15NbRreXnYW0eunl0RQnL0z1lPlpZ3u20uLiNky1LUfF7yrPe/Nwr68IvRzIGxBvPHtOSaL5IePPyM7esH61Aih3dZe6D1jfTEs3H82Zskl+1pBXDvO+++y5atWplzvP11183H0driDVJa+TNN980++OngDnRxfd+QZNhBx6fdeMngpmHcdJonwLm/4f3Aa+Rt6OH1i/jsHwI2O+ZM23Lli01x2Ws1luO9xTjsgx3xNvOBwfrR6va1j2ybLw6R6ubvS783/CY9gHEvLweTOP/hfcb/w8sx/wMpfDhynw8Jv+/9t4hzMsyrK93ezzY3ngs3gvea8o0bmM6z93em96Hpb0OnPN4QdQvkXvG+7/hvnnNmI919F7npkbShZIxNHLRRRehRYsWZtmKGC/st7/9beNS8qIzlsm5FcuysjIjPPza4YABA0wnBm9c/kMpBNzGry7ynztkyBCTz4rk2rVrjXXF/duy/CfxhkkU7jcRAUw0H+G5UdQoHLw2vLF4M/Ea0PKzJJKPNxsbLEWK+Xmz80Zm4J31oVXBzp/6WpN02/gdc14//t/4hUteb4YD9uzZU9PorEDTauWXMBkCiCY4JF6j5vfIuS82El7LiooKY6UzlMBj8+HH47Ac68Z7gPXp37+/2c401o31Yh77kOH1Ovvss029rEjyvLhsy9qGGa3e3Bfrw3O1osB7i9eWc15zW57XnWLChxKPw+vEMmz8rAPrz/Pk/4bnZfdHsWA6r8MFF1xg2g73SSHnPNb1JLGuKevSrFkzk845j+GtK+H1YlnWhW2jsfVL9J6x/xvul9fG/h8YS6d22P9hUyNwf4wnzNhdXl6emXhTMc7GRm1hGi++N53/AAoAn0a8CQkbOdMtvMHT0tJMA4gHyzO+57WkWNYrRCcKNjxaeqwjb0jWie40rUXe4JZE8vHasbOM5Ofnm57WCy+80OTjU5qWJ624559/Hn/4wx9QWFjoe+0IBZc3sbenk42C+6NoUZiTBRsk628ftIQibBs568bt3gcSLXsSGQdnPjZWCwWMeD9nzO3ePF6sEHjjfVzmA5/X3u6Pcw6NYiNvCNwX/79WIFg/HpcCU1/4YGUbpCfB/XFfvA68bhaeC8+Dx7DXNR6J1K++9wyFmHW0UKxpALFeTZHAhZIXy9vrzY6IoqIi4yZbeENT8CheXhiPo8BZoSRcZgO3wltaWlonTyT8x/LJRkuMT66mAi08PnXZsIYNG2aG63A4EXsrCd0QCkWi+Qiv96hRo3DNNdfgiiuuMA8WCiZvPOahsPKBc+mll5oblu6TbfTRiNfoKV5sdA1pwInCY/D4dBkjsXXjA9BrdVC4aM3xvvDijdcSKwr0VLivROB18Mb7eO5WfOx1sPtKRHSiESlYPDfew7zH4/2vCPPwPmd4ihPvd3pQtBAJ98VlXjdbT3uP8R5JBL/6NeSeiczL/dPitPd1UyNwoYyEYkh3kVYk/4m8uLyhKXhW/OzEsYheKK60hPjEt8KbiFXIfyLFg2JsrVu6aycaPuk5saF5bxSu8wlLV4qWdqL5okGXiDcurVA+kHj9aXHRDaNlZt2oWLAsn+wnCv6vKew8fzZ8DlmxDdzWjVayFQZOHHnAhhqJ1yolbIy0uCmqVlxoucfDCg4tHR6fDxv7f7HiQ2uJ+4w83vGA9zrblx0eNHjw4DqCzfp6rbWg63ui75njQdKFkvAfwn8MsdYeBc+Kn3eiNcr8bPAUV66z4TQEWmHcJwe8U4S9Vu2JgJ0enGJBq4U3XKL5IuEDiIPLKYi0stioed2t9cUGxAcVrYlY2Cd70NSnUVKcOLyGcWfWn1YwG7mtGx8CVhi8k9ftiwWvBWNtzM8Hqd+YQ2ut0iJiHbjOc2EduUyxZDrX7XVuarBu9Dx4DtbtDrK+ybpnmhLH5eysqW+hi80OgPqa2czPcvWF7ihjeX4ue7KhC8NGxie615LhOi09XhdOieaLhC4l0xkctw3cK6p88vOmjnRJvXiFIRJef4pvNBcrEVgP1sFLtONY2JD5QGUjZLl4dWsIjJHRQo902b2wDhQV3jf8X1iBYV04sS68xrTamjLWAqaXwbYY5LjaZN4zTYWkCyXdbbo53pgkf9pFXn311TDhohXJiVgLhD1kFsbtImOO1kL1BvL5z6EVYrE3OfMx//GCHScvvfQSXnjhBXMTWUuarF+/3vTM85c2jOHyZrLDjRLN54XXicNk2MNLYeHE3lZa5bSauJ3WJtMoxLGgCFBA6PoyFmqhUFGIaZnE6vyIBwWGdaL1ZuNu/J9EhhDYCWVdRMJlCiwFnnVjA2eZSCuQ5xYpwpFwX9y/hfkpHvEeHIQiSHHhZAXRCij3SZHws5hZf8KH3YmAdSVsP5ExR9KY+iXrnmlKBD48iBeGgXgKFScu083xus8UK15Y9t5SBGxeNgjm4xOKNx4nxpHsdvaS8x/KhsZf+9inOhsgXWvmoZAwHkdRtWU5tIYNLJHfYXthQ6bQ8GnYkOFBbFhsmLa+PB8KHH8pY5/uvGa8iRk741AnDucgieYjfBBwbBqP7T0+h4TQhWeHDoWF14WBfl6zePAa86HGoR18cPEcWAeKLI/thY2BDwHW10+Aae1SzLlf7pN1Y30pfDwej8uG6h2HRyGi+NuGzmNwmfXi/WPzMc1aLbTw+GDg+XvrxLpy6JEtZ8/J2/saDV4v1ov3GTtAOCecU3jYWcFra4l2TXj+/D/xPuGxWUdutw9+a0RYmM72QIGxx4uE9wSNAh6b+4+HPT6vNa955P+qsfVL9J6J9b+x6baNNDX09iAhviLwYckHj97uVH9O7QisEMJAK5dWIC1viWT9kVAK8RWAbjAJshPnq4RcbyFOYehuM+7IfgH+XNB22oj6IaEUQggf5HoLIYQPEkohhPBBQimEED5IKIUQwgcJpRBC+CChFEIIHySUQgjhg4RSCCF8kFAKIYQPEkohhIgL8P8BQw5f+sXHQuIAAAAASUVORK5CYII=;" vertex="1" parent="1">
          <mxGeometry x="221" y="736" width="170.1" height="150" as="geometry" />
        </mxCell>
        <mxCell id="GGMO2yRkHg3GSXrG5hGa-29" value="未做出來" style="rounded=1;whiteSpace=wrap;html=1;" vertex="1" parent="1">
          <mxGeometry x="612" y="347" width="120" height="60" as="geometry" />
        </mxCell>
        <mxCell id="GGMO2yRkHg3GSXrG5hGa-31" value="BFS" style="rounded=1;whiteSpace=wrap;html=1;flipH=0;flipV=1;fillColor=#dae8fc;strokeColor=#6c8ebf;" vertex="1" parent="1">
          <mxGeometry x="17" y="692" width="78" height="41" as="geometry" />
        </mxCell>
        <mxCell id="GGMO2yRkHg3GSXrG5hGa-32" value="PreOrder" style="rounded=1;whiteSpace=wrap;html=1;flipH=0;flipV=1;fillColor=#dae8fc;strokeColor=#6c8ebf;" vertex="1" parent="1">
          <mxGeometry x="248" y="695" width="78" height="41" as="geometry" />
        </mxCell>
        <mxCell id="GGMO2yRkHg3GSXrG5hGa-33" value="BFS" style="rounded=1;whiteSpace=wrap;html=1;flipH=0;flipV=1;fillColor=#dae8fc;strokeColor=#6c8ebf;" vertex="1" parent="1">
          <mxGeometry x="449" y="692" width="78" height="41" as="geometry" />
        </mxCell>
      </root>
    </mxGraphModel>
  </diagram>
</mxfile>
